<mxfile host="app.diagrams.net" modified="2024-07-17T01:18:28.098Z" agent="Mozilla/5.0 (Windows NT 10.0; Win64; x64) AppleWebKit/537.36 (KHTML, like Gecko) Chrome/126.0.0.0 Safari/537.36 Edg/126.0.0.0" etag="Fqaj88gUDelc4rhZgF7H" version="24.6.4" type="github">
  <diagram name="第 1 页" id="9jxvyGqw6Lru9UusjnFE">
    <mxGraphModel dx="510" dy="1651" grid="1" gridSize="10" guides="1" tooltips="1" connect="1" arrows="1" fold="1" page="1" pageScale="1" pageWidth="1920" pageHeight="1200" math="0" shadow="0">
      <root>
        <mxCell id="0" />
        <mxCell id="1" parent="0" />
        <mxCell id="B_ipoGFp1tY74W8UZ3Ww-6" value="" style="rounded=0;whiteSpace=wrap;html=1;" vertex="1" parent="1">
          <mxGeometry x="730" y="-10" width="1080" height="540" as="geometry" />
        </mxCell>
        <mxCell id="B_ipoGFp1tY74W8UZ3Ww-4" style="edgeStyle=orthogonalEdgeStyle;rounded=0;orthogonalLoop=1;jettySize=auto;html=1;exitX=1;exitY=0.5;exitDx=0;exitDy=0;" edge="1" parent="1" source="B_ipoGFp1tY74W8UZ3Ww-1" target="B_ipoGFp1tY74W8UZ3Ww-6">
          <mxGeometry relative="1" as="geometry">
            <mxPoint x="739.9999999999998" y="259.8620689655173" as="targetPoint" />
          </mxGeometry>
        </mxCell>
        <mxCell id="B_ipoGFp1tY74W8UZ3Ww-5" value="寻找领域模型" style="edgeLabel;html=1;align=center;verticalAlign=middle;resizable=0;points=[];" vertex="1" connectable="0" parent="B_ipoGFp1tY74W8UZ3Ww-4">
          <mxGeometry x="-0.1967" y="3" relative="1" as="geometry">
            <mxPoint as="offset" />
          </mxGeometry>
        </mxCell>
        <mxCell id="B_ipoGFp1tY74W8UZ3Ww-1" value="" style="shape=image;verticalLabelPosition=bottom;labelBackgroundColor=default;verticalAlign=top;aspect=fixed;imageAspect=0;image=data:image/webp,UklGRuKsAABXRUJQVlA4WAoAAAAgAAAANwQAiAMASUNDUMgHAAAAAAfIYXBwbAIgAABtbnRyUkdCIFhZWiAH2QACABkACwAaAAthY3NwQVBQTAAAAABhcHBsAAAAAAAAAAAAAAAAAAAAAAAA9tYAAQAAAADTLWFwcGwAAAAAAAAAAAAAAAAAAAAAAAAAAAAAAAAAAAAAAAAAAAAAAAAAAAAAAAAAAAAAAAtkZXNjAAABCAAAAG9kc2NtAAABeAAABYpjcHJ0AAAHBAAAADh3dHB0AAAHPAAAABRyWFlaAAAHUAAAABRnWFlaAAAHZAAAABRiWFlaAAAHeAAAABRyVFJDAAAHjAAAAA5jaGFkAAAHnAAAACxiVFJDAAAHjAAAAA5nVFJDAAAHjAAAAA5kZXNjAAAAAAAAABRHZW5lcmljIFJHQiBQcm9maWxlAAAAAAAAAAAAAAAUR2VuZXJpYyBSR0IgUHJvZmlsZQAAAAAAAAAAAAAAAAAAAAAAAAAAAAAAAAAAAAAAAAAAAAAAAAAAAAAAAAAAAAAAAAAAbWx1YwAAAAAAAAAfAAAADHNrU0sAAAAoAAABhGRhREsAAAAkAAABrGNhRVMAAAAkAAAB0HZpVk4AAAAkAAAB9HB0QlIAAAAmAAACGHVrVUEAAAAqAAACPmZyRlUAAAAoAAACaGh1SFUAAAAoAAACkHpoVFcAAAASAAACuGtvS1IAAAAWAAACym5iTk8AAAAmAAAC4GNzQ1oAAAAiAAADBmhlSUwAAAAeAAADKHJvUk8AAAAkAAADRmRlREUAAAAsAAADaml0SVQAAAAoAAADlnN2U0UAAAAmAAAC4HpoQ04AAAASAAADvmphSlAAAAAaAAAD0GVsR1IAAAAiAAAD6nB0UE8AAAAmAAAEDG5sTkwAAAAoAAAEMmVzRVMAAAAmAAAEDHRoVEgAAAAkAAAEWnRyVFIAAAAiAAAEfmZpRkkAAAAoAAAEoGhySFIAAAAoAAAEyHBsUEwAAAAsAAAE8HJ1UlUAAAAiAAAFHGVuVVMAAAAmAAAFPmFyRUcAAAAmAAAFZABWAWEAZQBvAGIAZQBjAG4A/QAgAFIARwBCACAAcAByAG8AZgBpAGwARwBlAG4AZQByAGUAbAAgAFIARwBCAC0AcAByAG8AZgBpAGwAUABlAHIAZgBpAGwAIABSAEcAQgAgAGcAZQBuAOgAcgBpAGMAQx6lAHUAIABoAOwAbgBoACAAUgBHAEIAIABDAGgAdQBuAGcAUABlAHIAZgBpAGwAIABSAEcAQgAgAEcAZQBuAOkAcgBpAGMAbwQXBDAEMwQwBDsETAQ9BDgEOQAgBD8EQAQ+BEQEMAQ5BDsAIABSAEcAQgBQAHIAbwBmAGkAbAAgAGcA6QBuAOkAcgBpAHEAdQBlACAAUgBWAEIAwQBsAHQAYQBsAOEAbgBvAHMAIABSAEcAQgAgAHAAcgBvAGYAaQBskBp1KABSAEcAQoJyX2ljz4/wx3y8GAAgAFIARwBCACDVBLhc0wzHfABHAGUAbgBlAHIAaQBzAGsAIABSAEcAQgAtAHAAcgBvAGYAaQBsAE8AYgBlAGMAbgD9ACAAUgBHAEIAIABwAHIAbwBmAGkAbAXkBegF1QXkBdkF3AAgAFIARwBCACAF2wXcBdwF2QBQAHIAbwBmAGkAbAAgAFIARwBCACAAZwBlAG4AZQByAGkAYwBBAGwAbABnAGUAbQBlAGkAbgBlAHMAIABSAEcAQgAtAFAAcgBvAGYAaQBsAFAAcgBvAGYAaQBsAG8AIABSAEcAQgAgAGcAZQBuAGUAcgBpAGMAb2ZukBoAUgBHAEJjz4/wZYdO9k4AgiwAIABSAEcAQgAgMNcw7TDVMKEwpDDrA5MDtQO9A7kDugPMACADwAPBA78DxgOvA7sAIABSAEcAQgBQAGUAcgBmAGkAbAAgAFIARwBCACAAZwBlAG4A6QByAGkAYwBvAEEAbABnAGUAbQBlAGUAbgAgAFIARwBCAC0AcAByAG8AZgBpAGUAbA5CDhsOIw5EDh8OJQ5MACAAUgBHAEIAIA4XDjEOSA4nDkQOGwBHAGUAbgBlAGwAIABSAEcAQgAgAFAAcgBvAGYAaQBsAGkAWQBsAGUAaQBuAGUAbgAgAFIARwBCAC0AcAByAG8AZgBpAGkAbABpAEcAZQBuAGUAcgBpAQ0AawBpACAAUgBHAEIAIABwAHIAbwBmAGkAbABVAG4AaQB3AGUAcgBzAGEAbABuAHkAIABwAHIAbwBmAGkAbAAgAFIARwBCBB4EMQRJBDgEOQAgBD8EQAQ+BEQEOAQ7BEwAIABSAEcAQgBHAGUAbgBlAHIAaQBjACAAUgBHAEIAIABQAHIAbwBmAGkAbABlBkUGRAZBACAGKgY5BjEGSgZBACAAUgBHAEIAIAYnBkQGOQYnBkUAAHRleHQAAAAAQ29weXJpZ2h0IDIwMDcgQXBwbGUgSW5jLiwgYWxsIHJpZ2h0cyByZXNlcnZlZC4AWFlaIAAAAAAAAPNSAAEAAAABFs9YWVogAAAAAAAAdE0AAD3uAAAD0FhZWiAAAAAAAABadQAArHMAABc0WFlaIAAAAAAAACgaAAAVnwAAuDZjdXJ2AAAAAAAAAAEBzQAAc2YzMgAAAAAAAQxCAAAF3v//8yYAAAeSAAD9kf//+6L///2jAAAD3AAAwGxWUDgg9KQAABCLAp0BKjgEiQM+bTSXSSQioiEikrlogA2JZ27+UD23Ffs6pp23bFn4VkLQB+1/Y/vdZR9cf0f716d9x+H7eSdF5tfs/8/5z/9n6q/6V/rf/N7gX9c/unjM+8D+/f9z1Hf1z/Vft57zn/d9a/+k9QP+4/6jrcf3b9hD9xvTs/er4cv7L/2/TI///Zp9Lv1F/wP5K+975B+k/4D+6/5X/cf3P09/Fvl/7f/cP8r/ov7j+23xa/zP+G8XXq/9H/w/9N6k/yL7efj/77/mf+h/dPmh+5f5n/E/uj/Z/Q38x/df93/kf3c/z/7e/YL+Q/zD++/3T/E/8b+3/Hb9T/u/9L3Um7f7H/u/4H2BfaT6V/q/7z/pP/P/jvin94/z/+I/e33S/ef73/pP77+Sn2Bf0L+r/6j+2/vX/kf//72n/o/xvkp/nP91+z/wBfzX+yf8r/Lf6z9uvps/sP/N/n/9b+2/t9/Rv89/5v9B/sf2v+wz+bf2f/j/4j/Rf/X/U//////fl///dZ+9//////w/fvB////aLfyuRflci/K5A3SvHsagHLaL5P/V2FcG/Vcbe1EbtudF+VyL8rkX5XIvyuRflci/K5F+VyL8rkX5XIvyuAInC8fnAAQCq4QJ7RKDaPbhYuFa5C8bqyX9fQMVHCYZat0a8eZ8GS84Ml5wZLzgyXnBkvODJecGS84Ml5J1NqNELRXgQspC2bgHRJ9tHB5a7JuHGN7kGywWJV53YqNByB/zH6rWxyWDo148z4Ml5wZLzgyXnBkvODJecGS84Ml5wYRSoiwZ6pU5xRCWV0rhwQZFsjTdymtQRmKLqyCHlXPNYnbBOdBXgkzQwfaX5qq2q2A0RhF+PE5VCk6g12miYjRgCq3iaeq8eZ8GS84Ml5wZLzgyXnBkvODJebSYd4norjty9FHUczps0rRMTAZPL5bXBAMEvI0pO3/ZpaQCIgyXDW7uNSm0/+m+YNIgDoy9Mc9WUUGGsilci/K5F+VyL8rkX5XIvyuRflcgZqok/glIQoBkGke1g3WF7gXzwuHCALDzggjseC6SdGy6yoQnxUP0f11i3YQ5hOBotX7Hga3D8Zd8qljUIgcDgAqvHmfBkvODJecGS84Ml5wZLzgwilPAcJlXmFBYEeiRyG/pAK4KwhHL2Mlg0FFjaJLHKfInHuFLmUq6J5wiX7/VDa3byl1ngzI2OYJ6dNggss0C2LTweLOwzmGPX/gpNIUCG5muZL+rUxqWe6Xj4tHhvwEGnQGb122WB12T2hZV2tj4scINxwT345dj3FMLdE9JwxlquYU8O+r3/ODJecGS84Ml5wZLzgyXnBkvIWI3xZQt2wTZL/i2oPLyqsN2Eb344BO0uFUUW4hpgNHnTzVh6uY7dLHl+9BiVHqvD2oBMYPwVfVheq0hQ9UsfmrKjD+nVTMjr9G7O4QIP3YwpOdGjNwgQsgdRWHL4O6nAv+TxFCbR83DxT3HXCJ7GqhVkyROLhhlsWBc1g1xnMcBwAP0meJ6S3Rrx5nwZLzgyXnBkvODJecGFcOwz9fAkMI+0oV/YLDzNUbW2/sE9b9d9wqqXvJiqFLuRrk3a5yJ06K4NFMwrNpb4SM6ocxQIVFCLgHX+HCZ8GS84Ml5wZLzgyXnBkvODJcStzbtlNl4i9k9v51rOk7/RMHQ5oZ4YWrW0D7Vqwrf78r3VsA+IZInJwtoXGmreHTufK6JBI2FoMKr+99qSXQlY6u0mL75l3MA+yhnMCW6NePM+DJecGS84Ml5wZLzgaO2+bnGPl6oc8bBOt8d/KRpdAWt7CJVL9BfKAVAotQRO2FLujXjzPgyXnBkvODJecGS84Ml5J+wmUAyb5kZW6NePM9pgehcCSxGc9ZfyuRflci/K5F+VyL8rkX5XIvyuRflVuHYZ+3RrExqGS84MjxQIqhp6ksHRrx5nwZLzgyXnBkvODJecGS84Ml5tsYIWoXt0rIgDXjvCbFDBdDY60LyNeX8rARCYBj1BPFDXjzPgyXm4tqiahauwqMPAvy8K8DXXRrx5nwZLzbCi3ZNpsvGaKzEQXMb9XHLror88fP2qrPbhZC+WF3ySq7BYWFejU+YNrBBLxxYTSb9f84Ml5wZHKJ2WwPdv2HMy4p8vfwaFUXzY3howiU4JYOjXjzPgyXm3QI8Y8JXC7XePrgvK7ctDYxobqL8qtw8jg0SA2dlPu0yf0yKYQfDDa4WMHlg7tXEQ0rK5GVDKoLz8wfUuQyXnBkvODCue3DrCXjTye3B4uLAyUMlGPPiwqrNMxn7qym0kdptLy1JpaDeVXjzPgyXnBkgYSqvuNXEQJx+Rg49IGiLSYr1m9U3uw7Lly5cuWa4qOWYStWpch2tRVexNies3c1p1eI9mVQmnMZla2JfypkWWoa+P1DH0FYz6wSFlcLTuZ4SR/veuFuPN+kGOPkhnd9N7ZOQFH4ff9abaDbPEXQdLiblKFLEYOn/8QbjAFR7sRaNatue80zjv3fBH7dBvIBTxolvAqtdAFzg8pEpQTItalc0HpigfSJ2BfK62XF5APTXDgWbFd5kceYuo6MO3kYE/jjKVujXjzPgyXDIIyVk0e+YQawytQwJ0fjelaELUix+zM3sa24S2zOw++xcj7tk7MBtYDMry9nWa8SwgGQptZDu1i02UCKUC4QNYFeXpw/7UNebjIIcUYVoBC3tg/71MREG8ynb1gzs+wom/ACDuSu2na85vHjzYNltdocYpYKpTo0pDtimNE0D4KeS7ckifG8Do148z4Ml5tmoHII0HOizzOesq0MvnAm+h/LeseZ7Z5Qqg7/j+jIVb+BrGpC51AWJAAXRRBOVgGRkK66NePM+DCOqjhWeaJrwkZ0ymR3xAP68BQeyrkckIgv6QV9dLVtR26C1rHhqjXRrx5nwZIGDscWURioLnoYByE9alGARa+ozR9sTSZEzawbncTlbmpFAYpWdAH1KwUAFuYrvEZWAdRJOZPbYkmkt0a8eZ8GEn3apvx+ymPFlA4h0L/IeNZGdedN28E6kak2o5pfFGRYHKORflci+fGHishZQfAz8KPxvWxLNeg34ImQEgFHIbXEFL8NVS1DLo9c+SKyoZLzgyXnBkvOklCXJOBqJ8v5kjGr6IdWvJOBrro1NsPmycEdtNoKtPVohhnRoMbc3hqNHSWbOCkNnSVujXjzPgyXnBkvODJecGS84Ml5wYUHZPytj/gH7E8DXXRqdAqP7BPlDEgnYs9e116hMhjOt2js6szMJ5uXCpDfBJHfe8ZQQ1ITkmhdtaTuSk4GuujXjzPgw+4y2dkDqkK1f8H9QKf8rdGvF/nMdOmBCxNbChflci/KpH1D0sI/xpHtArPA5rqjpeDaBwHEyWN2TCqD/8lte8Ji3YpEp+DDPGclrqZLzgyXnBkvIMoYfd/+H/Flxr7gKmt2UMqMIRkjUMqD5wZLzbDF6lcDuntDghvAyQlm/1pbdei/KrX7cPiqb3I1Nr03ex1WSOOoEUNEdxtZZAlBZ0IogeO4UHRZLyR5nwZLzgyXCoRH8GTXSp5ntgzNkPoBof/l+VyMJChTXfNBPDomKYaCEYpLzmQl0ieEBSuQY/AFQE6rllokp/+Kr6M0HJm3sqksh4ufnfGLpGyXh079ZDgu+Z3rvEQRAMpclxd4a+klyGlW/Jc/CB6H7OruxPH13DsqlxsGzYsAWiZhnXmqfHiUnDE66KgNaekt3pMpibReOyq9F6tKnstuGcx6lCrxA31tw/t/mb/cMgYfc81Ju8qgOElOkHyDN3O84m2k5HITToT1wCFKMJkyZMmTIgPGBib1SZtiPnjp7kS19HjpwI9wvc2LK3RYkhmjQX9KnEjItlhrtsaLqm2K3DjG62qRN6KBf5zfyboiMAv9G297LprIJUWzrNEMT9cIelF+XpvrjWu27Ea8uBJctqGF9PcyUyvgKEkKxL6QPMrrcJp54I1o2diTV3ZdlV7J4W66gq6LlondD9woxtH9eN3eOx7kfjcUCpCIUtzsy0Hzg7WQ148vqH4Vwt0icz0SohzfSElSguoLc7z61NBYV1NdMitYXMDXXRrxb0SKyNG5AHEGabn11a7C5dH1GUR40ZxJMyVaVyL8qnuXNsXEeEmBG++W3OOoZLiRYx/ePtyjF6rjyyXbeSGZkMIKOCkGmBszoyS2bq/zhZKHBwhgm+VujXjy9rcUXIDrWIaoldVK8j4XNun2ciGS9jQ1JY9KuGaHtus7s3C3/iI22oA4acXq39zmNNyANePM+DCLtNOWB9wOJ/FzWzrth6qBFv20iYq3/OBmazzrYyYESDGcGd3BLqUwpJflci/K5F8/S0EB59NjBQxp1rs+AfgVqx5flci/HjEmIR+rATX2MB1Pmr6YgbBZNn3NfOOjXjvkfPN2mItkCuTqL1kY+DJecGS84Ml5te5rNfuLrM+LL1XIi8U+LgTPgyXnBkvODI8Rd3mal/nilVWbCjhsnkdrVeohZflcgrJUu5SWZcaYQvemlHJH0CX1jlL6CIP/qTZj+cGS8j07l5n///SSNKsmQY0q0ukHItrjVYCXIvyuRflcgjXUJ9UL3Dy63fsE2gNbUatjlvsri8m6mSkvEyt0amdjsblQphsjBM4w7+yPhUDQMmZ//avwmX937nMxIVJDFgspmsVuvUDrXjy9UGMiXiLAdORXshGZEepZlpecGS84Ml5FmSqEUpLB0a8eZ8GS8kymSgx1YxgrDY/SJNydO+y12oBOlbrTHpchaZFYqHme2vrDVVIktYRFe4+7KeTNW1OmWig6vV0kNjG4YUBb6+6/5wZLzgyRRow5/cxj8DXXRrx5nwZIEnQAAra/rZ6JrNb61unUk24q1A8hW1ighJV4YkTgoy70BuGOJXKw638dwSDwY2wIlLPIrmdfyj8DXWXag3LPPCtfJJN5ErDiZUf1aXD6hMCT3QithYrPmpGsjOYr8rkX5XIGnH73KKFLOx5nwZLzgyXm25k3D0IPPltWVWHq7UEWMAiHRDHkDno5Qy/kOTAwlKTtSe/fHnxYYqdwk+iOLhrrzPgZmZY8PILux8nnJW0FhXNv6cD8J6DPgyXnBkuJW32vAVOlfBkvODJecGS8lAkZ+0JLMxZ+JFMo3jJoDmij2k5nh9Sj47XGrCsl5wYUSQylcT9336oQPxShlhIb//9w3n/+7r/zL6VyL8rkWr9g7yiqiX/A110a8eZ8GS8kVxP9HhLgc3Fs1um8c57hPY/BhZn/G1QTWZJst+65UvDfPLCBDXjzPhXbe29pS84Ml5wYVw7PUZ6VmG1zjwNddGvHmfBkuKKxNJB8qxBdiXFgOXgODJecGS84Ml5teue4DKKM0p82Cca5sVmI/l2jlRJyCW6NePM+DJecGEMX8o5mLdAUNhmfBkvODJecGS84MlwnOynt/D67eVyk+6Il94ydO1fz5l5xItmZC93BrJTX8DXXRrx5nwZLzgyPdL6QJJtJKfHlA/EAZbAPb+DIv4/v1rx5nwZLzgyPVnd4JTXkkeBW/c3u/EWOWX7bHPNTdts+VujXjzPgyXnBkvOBqHqzUa//VKZ6ALQp/xf+TMgKBwzlLl56tGjQgU8EdxOL8rkX5XIvx80IicGXkibFPCfzkD3qYaE10JjncggaNpcCgnPzCLa6TIX47GhCSneTJC1+FlK3194fTtEr+DJecGS84Ml5wZLzgahlcYqNqgFmz1XY+VWnNk4G1i3YyTAgGUIJLzgyXnBhXzuL1PnNx+vp1LYionJHjjB+7DnX/e1ObcbAFjiRGrjDxef3pgoAx8XFHBI8Ma66NePM+DJecGS84Gf0a+e7t6mDcOBI22UARD/bepXIWPGO5EUgzmJL0o9egZkF9uCX7V9YUpjIsZSl/XNP4Vt1vRLvGoeZ8GS84MLQpzTPkZzOk9LYKEp7at3C4AMlMQZLzgyXnBkvODJecGS4iSJlS3w+aD2MtnlT7IcbV9duOgv0klCv+qSRw8wY9xTCnM5bHlM6IwWYxlSGe4UN/zgyXnBkuHlMFFd1omV6DO78RwTB6H/oerUsu/h//8YXMmBMrdGvHmfBkvODJecGS4orEoGgEU/HGdYSkuKLcvKWT+O08CBzga66NePM+FdEN0We0uPA110a8eZ8GS84Ml5wND9VkrN/TiPGFEUhlodyEBiOhtxloPujP/7+RetK5F+VyL8rkX5XIvyuRflci/K5F+VyL8rkX48XFO5jk4qYNXqQIPA110a8eZ8GS84Ml5wZLzgyXnBkvODJecGS8j/Rpy5HiS3Rrx5nwZLzgyXnBkvODJecGS84Ml5wZLzgyXnBkvJEJlkAPk3/8qaWAmsopc4GuujXjzPgyXnBkvODJecGS84Ml5wZLzgyXnA0ezzzfE20KI/fVU7jVuNoTOwZ+avAGZ1MyoI4f9RWBrro148z4Ml5wZLzgyXnBkvODJecGS84Ml5tqa7nLe8DbA3xDbJG6UvRFHZZ12nfgO8II2+bROBVCmVlql0ws7JCYZB3YxpiZ8GS84Ml5wZLzgyXnBkvODJecGS84Ml5wZLhobJF+A/vy4rdIUQL0chez9ufp2V9BAxdzwsw0FnYcgZSP45rd+T7rf51OMKIu2AtP0WYgP4cjQr02R4/Hga66NePM+DJecGS84Ml5wZLzgyXnBkvODI/KuHv8udjYlYVJEZx2h2V8RdW2CWOfsfQWB5NqnkkcPr8RJU2QWnPXt3JNV945JNdGvHmfBkvODJecGS84Ml5wZLzgyXnBkvODI+Pc9lkOnyPqsN2fpUFfJZrnl4Q9wSYdjpLxBxhGIUTFgkvODJecGS84Ml5wZLzgyXnBkvODJecGS84MtIqlud6gBxKP/TNOuui6RZr0X6oZ6pFz/8DXXRrx5nwZLzgyXnBkvODJecGS84Ml5wZLzgyYeCPHHOmK3xQzEOx8eZ8GS84Ml5wZLzgyXnBkvODJecGCAAD+/7hwfBKy5bgZFF1XyRNkueL42us94CChTCycRy+MdO8K7kSk0fhltCDiGHNzXjUDIrRgNDv5WQANuvocXNIA2U28+TU5PErGVV8bRoV0rTQf5kWigFR5V3BKrsI2r5pHgGfjZHIFLvNTPWu4VH4b6SLEbZrgsMoSq5+VdDkyOPBHYYnpODNftTdhzzLG4hSdg0gX0zETBL05shmWyK9QLpCHHGH9TFB4cBKc0XyC4U+PPsOuV8FEuG4dZVeO+02Pt9nnfC+be2qEHoTSSJv+cAAAnZOaU4jXo9A7pMOKYHcfJS7NZ4Cyw7hzNJkppQ0nMdZ4deLGN+TwgbOYOeTAD0TtjBDRh7JLjhpZInlqk8+lZCP3Gp0Bz8zPK2zfL4BgGTzs62bk8tX+YJXAampqlNitgzD69BG+HV3FCbQK1JzqWwXdSNlqdddj0t2XrjM9w0hm7gr71LE9sZiM4eH0RkR67kUtZi/nCGTIQw83OUohDO1FHg+c4ZVf2KSOrVzDfVmGPCUFBMK3LyL4hK5+yTcEclBPycPYc2TYk4ZwRc31ka/yKO6DCmYtQxkxI8r/p5WHDYNy1lss4txp8Z6BmIGwJfLtZKIwI6XKDAQUF/LW110UzSvmuylpK6GtrFPM4Wqa555mF7bCLGbjL35skx96Q0y2BTLgNA/wskMwxnATsb0l3FX9Kf1hZ34RqpxzuTvp6gMtj8Gb8UEcQApC+tdqYDOcd1/uVyv1yyexsd7B7WZ3izRmbxrx9K3IpSry4WqF4uqBUSP/TeiUbdIZTvxXMsx7ikrGatBtBbJk3bjwAAAmRCcPoZ68H4PvbHSOCIhSpgnVkRzjoi7Zl5vOpdZhBHTvNN4UarrpCR4PuIxLcWbGdQ8SXAage8GFLAOxqj8BBqXrv8qHNpi62FB56sTbwEznRyiAp2E+/2bjdhWY8vxRbyuQCxbFuipgqi8xqNkmg09ldcfkx1onCSmbnvqbMBF0mKQ2T+e6zMmji7E7ZqOiiY+WGZKwbukNG4l3KYrkDyO33Z12TU3g1gQezg6BtLaOAo4WuyXTYiVsn+boZAYKW2Hny2VYAcn5SW06oX7WGkzxtZVFqNhKmbNInpBsyk40h4bo7pnRfMeCsdHGy2Wm6cwGgoNC66E6XSd5gnvupZ2Ks/MD6tikRZnnDFFscFIByGPP4xGshcp8K2RET3CR/oDN6+nxR1D5u60CTLaVykkYV7kT/cZVFx046bm39VqCTwVMO85GQKIJhSRuvlPhTa165pfm3bzeOai/Lsr85EHywy3oGXAAAALKUOgFVRjOAUMJR7ZsAWwFzHGWgIW9RsVmm35mZiKB4b32hwtRR0vP8nudAI2FIy5KOe4Kf8/AKAmfuhvNEimjM0nBzJawSsDmW9gpa9zft2pWt1I2ewCGJQGz5lkXEFP4r+ORxz/tSXD9yKEBDBHkX0YaL6NJ1Zj0LUHHQMrY3RTuJ/AUWWB5v5I4X4F0vyIi34jnWQbSxVHJBrfThDxcnqFAyKDcSuhwfCJTq7qi3UaRjN6vFnbTdp56+wpY0wKG1VEeehyZmrCUEz2vXbFi3KbegPO81Q7EfTIKStHGgck8EZSkjLN5b8UsWgOu8+2bD0igtQIBKlj//apqIvlvaJfLpaxS6qyasYyas8PemSEWRO0vNG+yA4aGheCS8lhqykdpgof/9LFQrjyjjFt6GK2cyYKy/kqVEMZBheVhgYB4b0jJgZ7tSnnvpqghmagOGhNMqQkr23vZWSh/bVn6dcl5QKaiTf4puq72BxaTDnFF3OeBU6lmN9OsPG9j8YLs0Qw2m0TecOmMB4SDD3lSDBEsbAMNdIPfbbbDhI/8QjInvGNNYTY1Si4ABEosbv27LSzRo1Uyrv1SwO7vShWK/gqoYLjnI49iGBscfwuusqt06pyg4EU49n0vIzZBoT4RubptVx/FHRE3aglU5NZZCiA+LAezPqnqNLQtm5doe9gRPu+mx7ro326LcNEGMKP8j5g+uft0QgTqn7F1K7CX27fwNvXfGn4mi85g9xLmbWvXU2i19F665ThCSZnJTkttbiibTWytnP/pqMLfKcicTQYS3QXqXWQyAPj9P8zV69u+bs/tVqWFtTjikgI/Fe+DkIh3rqAr7GlOPvoAG9fJMJeICPNRWnxEno4GXdTg03UWcMh5VskLQ7O57zbFKbv9kkch9m9etshYMCvH7LRBPagOgqZuRFxn1IYzoFfjc2sZDWY0XpMCvYMO6nfSziu4xGBNQHdjHN8pChphRkM0u0hIoUNwsx2tEKQPod/fRJ3QtV8mmOIbo4eHWfvLJqQ/CPHdVRdATWqtE0R8j7Cicfv9c3hiCmRyIw+JlTEwcIsnx3MK6xAAAb96hOeFDZuNTI9fQS78y9/eUWxBUMTMiuDIOdENk1vu0e0lFGIZ9q6jX3LE4CS4Zyd7iLZlfvyrWxJRAQzotScj1W0OLhif3vVg8X33K+ySnJfLYtjsZXdFb0D7OCjVHmdkESQNvOgyu8L2t5MYOpzsWyfvanpEJmybNoCB4hZK7ako5DLopG6nWoLh7hIaBiEMICcov7pe2XzTNaAIEMXBEndVtLRhZF88tSn0Q2pf92ACOXjLUgbA0HfczTPNW23V/mVRiornBxTLYwI74HDB1bXz/yvJZLp2lxEUIpjxzFHkez67tGfdS8074x1HoyrQZiwByOWLQoyUELgalKIYwbZYB5qC/PVTgOUwDYoCSHdCdr1zDtzP1A0ZqmccR8IjDzfWCxA8T0wZZkb4RNeGmaBilL3CYskIEjn4y7wwg25j6AGHvPdqGsMhSfJpiIbi+rw57lcWZRgeIEOG2E0+z1g758JUQ/xmRIIaw1g4T62mvUJzbpEJxlqLc3NbO+3q0678UqVJp5TK9i3Yh7TE7hxBpWl5lbeaQ77ipJc46xxRrwurzwB4/1npRtsOps75JjmBR/cvCGu9hGFn0cdVoPRxBNSTlKM5lfuVFU4B+jk6AVEOAA7TelY/NV/h70mQELRAqwac801Fx7nBGI0iW1kbn+AQoq1KlNmyAazDSl8ANgxm87I5AVuTX2sOvZ19aMYkZicBAhpi8qa3OcTKpjGCrRAUOgrVbHRqI4REe+lEvYynBOr/JilkcxYAC5JQy2+LZsjWV2lMSxGVH6wQR/gjTjWvBpUSEdIaINOu77193DVJICdY/E7P6D7a//ipV/dsrXbbF68FVkRituLP/AIl4AKPiIiYLgSAWx4evPHG/bKy9ZJwIMRwYc8D1G0FtG6oaJkZcjL9JleYuytM6wV6ZmnhPSRazX9Z/fiW8vv+yTpLximFms0OjPULwgQ4mUT2bYmvWWrlrpMyPxQU+rMVuIG4uQof5a2Thu4JGi00coJ5CdHW09gBXbro2ZATPAGGLarp/pexvy7K1SC0DwGsRzX6SsuVo+uIryPCqsj0ddIBI1Zm+VnI7k3544srqOK+TydG0VwQB5ar6LHdNtuHpy0cVDw+cT+mmUgR54RKTaD0B0TIIn6bbWOBC9hnO/KV83u+0tOk+em8MkPV+sjyC0o2JaiF2WLJxv/MYcNg3mpq1LFsFE5GjJcteisenseKgitjQbC1+On/1iv+Fr3Ub0O4uaONX9HTFQ8jANIGDJxD5TMVtMbNWX6ZEPSdB+T0txo7MGhbPOLNUi7+hrKGAoJscT+Qy/+78bN9nn7CfT3u8nNcAtHBusN0nwGF3xE/EGv+ohi59vE+xPdBK+wUKcoELUahNh2llVgKQ0rbNUbcdOoFICHy+/+KjUchpCH3dQFULhicUQ2Xy2zah7DcHA9Te2t3r314Hje6wxUmVZe9aUsd3LFkuVICTKyq0a4XWFq7BgoenyMkNKLEnK1WsrKFF+wwK9KpZnIljD9pnjIjRy/9W5RrUW7xRoTJcTlcZnP2vFMzIoilAChW2MmtdUkDhX036xx00Aosa+LfAo79ZMbXfXc8rCAe7+gEYCSO4GAVDSxdIp5ptH8sIvNsNlWOd0sdaL4+IGl9is86/ioOgYPYPJ+jszBvM67gd1WqnubBdukHubLyIzqfEUddg4+97Gvi+9113ACce4kD0XWMv1JfAGj8H5Qk+OBMizmF2HQ6ArOuae5Mmf6ZwQE5rMk4OidLSwGnFcBJTtg7iqYTwACM7nJegl+FOnLac4UNxE/vSiOe6ceL4Lt1rxL32acWoUR5/nJyeIJowtvhkP+fb/bgzJcBy0Tby1DjEA+kMXmESQyMisVJ7YAcARQbSxyvDRpcsPHCUokMmERxSq4PhCA4Ig/2051TohNlb3Njvt3L7m5H3NNu/0Q2I3Yb4qOY9BQaR+6CFzXUzcTJh4BeZsBRGODtCNASOWqVFEe8vpB5ETfU04NZosn59ArXO5t1C8QNZFdJ/k+a0tn8wNoMR93rWC0OsdKwOMWarhBq997c/WhFzHM2Uplx0FHzsj+GYbluo5Eci0RcsE4Lwf7MtBn/dgPjiG3koNTiuKqclX1Y2WTooo/pdUVGbuxDWqeiwuzjGHwDCVFwbQIle2NxXpPW1apHRupIM2Z2JHZJe/6j+P9cRyF39NT9pjpj/OiB6TyyeUHhbxonM+PyOobjRD96uXdZqLvx4B2DnX0C0JWRo2jdNEw1lpuXQHq3FClRIBVuSB+E9PDtxQNfMSGZZRzGGZVab/cGOmeJ8ia0fhxj5/VRdWobMKQGOQZb5Vq3ZgWZfpc9d7cqCQ7bMRZsxfmBezRaz7+5wGkinEjLBCK8r52A3063NRFreWOtu9RRdF+/DA03mcwpEK8WwjEf6XwrLMgUj8ythJuaPT9yLksDCkdLvCkP8m7s5yz9rXARzC6gk6B8Dv06ujgAvmU1C5ce7N5VjiaOiaUtb1r+u0uDlc9tQb6UvVll05jEdw6mlWmNCLJAvHjRE/Df7EJWwY1Vr00qXYeXUCT9Y8fTny/LCY9nzmDTHk7JAp0sxegSiB9rzBuCwmlSA8BB7Fqobaj4KsLRCCEXV4ihfr9T32rN+qlOj4HN8pQE0nSwTvonh68hrb6bvkGIOrPXLkU4zjFIsuOr8L+y9ZaiXMzHxYg6Yre8/nRfkcabjv8RaTNdkFFMPA9EXGhTYaCFVJgl0fftqCDI6G1nh4D1Ln+6KSSIMy/rzO+/iX00gfjrRsfFtThntb8lrMn6IkAXdB1Ofr54w3CgFcagjNdRJAtUUuzuskzX+0NQP+LU+qHX0r39GfLZ64LeTJiOweCADs+LaK0tUNbWMKpHpYQ28FqzxzjUy1v1SFemRYIVlUznC05IJTvJdxn8MzULC7BKX6YpsoiJTHNfkewJ6mgAS5OSQSKh9T+ha8ocvDK5SC8vUUueQiRt4EsCJ85lYEwsTxXTb6F5XU5Ie97frI+gY9umUoRbN/PybZWgkiQsqdul9gvE+29QJUuXFhOe23273FAyakte2CdN/6CcCQH1UD1x98liWDb5/GwmoIsOJ1uP2FnuzifLSriM4PwTbPwFzyQCFPLycMPGSVFTiNddsfmGyAhBnabq3dq2st6hLm7QHdMUOa/xQoTTmgnmIxm8/q95+A7fp9Zatz/Zqb5FdeoczMLIWqD9a0xGAJ5y4ZlyZIWKqxzgICEzob1NdjPH7MJIkDq6NkbjZ1XsEvKIZU008a3Yw4TBZAm4Dsgf6EDd6f903cbZQyvP4CUgejQBV1q/Ioi7cLSiF3EQEuHcO7jt0hkNCwPYNRFyq7XrNzHnKiHzA+LGtSQZPiAeWTRx9hUCtK7i27BW4u+z4zLwdoZfjs1Ea/7AxoazyaVxLISbwyVLbUI9WUtUvstxUGOcwPM+EQIiwcE+DLX2qgMW1FQ/8eXZ7RnnzI1/KKvahRwNmx122SOhyN4gzT6PMFiJbIllN9U5jfe8+A9i2y6cSoOdaWa8933WNbwgyTOhD/lAGPqbZeaOGVboCU5p0Nopnd/UTBmQn3LS0eRCSctsxQxcoQ27v7b0hL19QS0SREbXlTcDlFwedzPKEbDrapSugBXCxjfYJI17NYvUT0r41A/FVbr+ukPHj3uHD6gLrjGrcQRPriCORIaJ3aATOYwAD/AeqM/pZ3zkW4cp3Q4cMvBo3r4lxeYhUvLmvGBiq416DkDDnA/tea4quUr+JBQEcme/zHx0bSe6ATGMmaoslmqWLc4SUchlkQMxsO+L1Kr9crTD/lm3YjU9G1GkrxTEyvFOrrWsjecoacF4OFGjr6sWCxEq47ENb9dVjCcLoyV2iwTVcjsedAEn2nL6o/GDyGFYyJar56ov8BfMS8MS6dMd3OPNsjsyMs0e8rlZt3eWIUf9V1BQX2dX9+kDh/c3ge0sSfR07CxrTXNonllrSabqyO/9womyPFp92CK3Nbu32jjloMnXxfGpy4bs+GMzMDBC2G6Fu0aMe5sAA79G0qSISnX5v9W+HYu9VmmQUYlFpTt0kxHrwxb1Oqb1+GAt8ZN5xc8nh4qexbH7FL3HvmcocTgfKPWyFMtTAQicYkIrZ15+9Z8B2LxJznK+U1ltbmwMe1HmSZpieUXTZkMSp2dlPTBBzXGbTzb+T9pxWc5JOVLDS6PAWZ9e9naVxh2nou93TLIFsGdpqXGTRRER+NtgJ9ahLDOoN7stMFCer2o9HE6KzKUbTB3r8bQo4Hr96K8a++3syA6m8HHD2o0a7cgoe9cdOKGKfsMDZzWrPkVCEKXl0aAmjOUSBtLjO2NCNFCIVE47+0cvTBVGioehuSSky3rb1zE1PHkjC3BVo7PPiYZVDLUvSesGN16Xf/pDZvDvEU0X/A2lmEZ6zv/7jz0LuHUIIvAxn0+RouKFQf4nrA2LFwEKkcz/ZINV55epMUCMRVTJ410Uybj6eFoHEWJH8uIjQ8P91HdqMBnr9PqV/dadgKlnEhHT0p3/cBNaB3OIRmBM4ZurK28CUliERM08peAbvkiV4u3PiyjJeTedT1ZbLKRZsnO3JKH1b4+4k65VcIxYZavoh4TGjVTUadKDfzbc9K6T/VMCIAi4iHX180qy6O6bAGsupTdBHXoapH8ahGW4HptUl+gdYMaxlCBVII35lSAZ3VzvFto84dHQSQJiRHfvQbghBCnvf4nwpO2fMT+lypMm/bwnY9Njg6Qno08SecHU9WQK6I4r9D5ypNivFAkOJisejKmBFrbOIJPToC09Ci7yJ5Wn6zv30MARI3r16WN0/S3ir+vi0gbGoFiFHlD59kywWfZlvzs5fDmNwTkhQru79aR4sl9yBY7nklf793ThhoFnyHh72zyg+idEI47RhJGjwpt0cX1NkRCUOIe12otKHdCGlWH2ZE/YBCH8ZHYJvr+Y2TT4PGW7+odgCbmnRcPs2gw13/4MCRcpX7750fLy1bIrr1v6er+9S7zJSsYDFBfl8Ab9DWSr+GWef070Zssc3ZMyP7/CRbGBLzVsSOzh/vPnlKnh/WPYe2GxH9O0zCvQ21oN8GLLqEcWZEkcBPlly1xvBplV2MOXvbEBBbHjoUKGFoRsFdXM34uzmFxF2Ro7hiYrJDgAG2DpZW6TxadqwjNsabZXS4yPmU/lYdYHLQkoiRFFjJo7nKYQKKClj6ZOQzh/3jIReaj13dOE/wzw1efWqto8z+mMHm6qIKZ3bb1XUTSm+KLQbOvUvoLT1T6XiEWygHfE+VUTKh8IJwaRmu5TIp7Xt8DoNSDyQxuXIzoiAZ5Avggu/zsOdu6fAcRnP9Fr+ZdNRvm3nla0UX3gpbwss0XBxeE6upmQvKsejXm6vo+26ukfFptXhSQV0yaGERgoH5Gulc5t4OYhsnFbcSWTnr2dWq21GuHptLzcD0pJy0Dlg9FMyzSwUgG2UrhazluYzD/k9+kJyYdoTq8Ks9J3YLMV4DkedPc60LunrSH13y96t/j2WidOR07SWye3KIpLm75fHqJRCvLdOGsQiIJ6XNHQ6A0cptoQUylfWbkGhd3TqbBdeg6whBleTSLPt+6QVkIjhddk3Ia34O0EOmbKx+xpaeGWDsJqAlA14rMxQc4KmWMMxh9H9nFrWsuedQAMpIaxjT91FC9rlYODhDH/hdxbG8I4+9RAKl1RI6naxDoBVjgpQkEGbd3Y2nfXTBuiBbqEKZaQx/JmeKyukZd0GThbLOizQxM8/xaRpttnclJj/vhuRYPi2NYcqh+pltxVE8Qo8w2KLsgiDZE9zpQLOZlwTQY2jgiNmo1Sj4GdB1Dll4hlFc2a+f8mM/WXyv/iqIgyTV1Gr91LyLPtIf32Uk/EKlJ47QOluxt4CZiQVDH2X1+6V4MCBhd1kXFSw2R8i3ylkXeeBUWNS0e9aFWOfiRczWUtXp3QAyvxLAE1/Ap0Cng9poPwVREw8N2T5fg8DwJxpyrtkLkRICYPIpvtHyOCVate9VVwStaXEBl5o20gaEaG9MlfnSleB0aVTjVjvch5p0Dxe02qNOrhQDVMOkKfnlRsBwSYSF5YM+vCMRkWJbycwCqK7+puzG62Xn1+nuzAzKy++EB5VUnRGUJn9AOZI9uTRK0IqmUlu+F8uQ2EG6oIemmXQmb1cZIbaYk8SulwWgLnboLzVMJcruiZmvvsugHM1zmupdgwQfLnYQj0Onwq2XUfjMbbpbqV2r1WXGgxLVOxCqwegLr9xThSkz/EocbYWcgBCqBUTR1R2NoDkDDCfffNN6yyKdqNuZvbZxEfqqd2EaQ4rSsP9An1bKdPdYNOQBql3+wL1A0F5IrmYaV/aZuIthXYwSdfv8QIO2qKJyvEPtbQmmwtBmatg+YuZr9uDAwBK5z8kh28hVblakZCj5ZwQFLmx/YVQyDDunXXraa5E0XOGXTxNNtPm6YBGMGP0lTLsiCRR6xSn+yrY0PpV0OzkHz3w4FnspOwElZ6dpTHZ+8MRJsfMBK3b4jgyvT7U6n4rsEBIWg8wzn8pJWl5CRtunjUnN70fHdWWZL3boP41W+ZQJoP4LDxdud4pml3tRZ8rK91H8aqcafUlGTw9k5GlHM+Cu/M1ZMZ8htgdqU531PfWGoE0xkxoMATUyzsEkTx3nlOcpr3mMZ6C7WJd4yGqVncxY9AfUhujsfvrOggxxJyYGtnsOmHlp3rnSdfTrIfgFJgyXx7Z+LkmUGlsCqgJBOExmDQZmVnwvlFdN6QT+jDUVmvB4rqAiy1+N4IIQ/XSzWW0VI6rx2Pa7Jljt8BxhVsIGPXexI5ipbxl6QARoVNHj4ALLW5GgedWr9BQIVqGBOVJaf9t+h6go1265HvALa+6zmzAuhITmM3bqe0rd+lP0p+b2jSfPjBYRYUlJuBx08p546Y9If9o7imnaM0I0WiF4N0QWbSP+vrAOe2QACFUGnsLkiLSu2KqjRUMenVrko2CX0huard8qiJ1praslfiiH/q11bnybZgbSI/VUfcAZ5AAqhOcopmjq/+nwi/H4Fcel+873DPvN6nTdNVD4NsM+fxnEcirLuZ0jYdAEtBPWUvb7fIURKzUW8Z2yGgGAnAg8HvPkatUu5iASEppPHpVKuILs/B5SGpif8UIgNN4LWuLtVUy2DX41JsI7z2AxnJxqQnvGpEvaqAlnLQ+hv6P4d+UtnZW3LXTxuJdtNEmMU5VsiX6AatYSesJaXSAhTAp1YtwqI+WZQ9S9SFB+SzEbgbIpuHRULdCBi9uPKi9t4E4iAQeSWOM5NtjDWdrGstec0FG8Kjc9A4K7LZa8SzuHiT37qk2s8VpC8HOYm9Q+e7Lwr1mo2Q98vlNy1rnTGhYIRc4EXKm/cer6SAPgF6AeG0np7xwqnRugr+WKFMvHZR4NFagTdz0a8un9uc96J0GNYkxPkissihlysVQFy03+EWHS2waPRmBpwOcFBncD+OKKJLo5TAGK7JAOshwWxykvA1veVdSiknygfQQPt1cwgqc15XLA2lZIMf6TJWTJmA9fQYnmptA45x6rpaeHkRHEvauc8+fPI5V3xniEimSZZ1UQnG9jKIO0RShmMlUGiLKGoK8eJppiZPzUsiNCbTRyPpoRvIjXIXwvVZ7V7E/V0ni/av+5xpcuAsoObp7jZomR8JGiOYy4hv7XxSbJJ1zOezv0DsF9kn03kFIqVXZ+YpEiNeMIe0RoEjxhH3P1DeaWxG7zVngi+7ognFc/G4PdBx9Gxjf8051PgUHpFJU7naPCtD7sw+djs6KZ+Wipwm1R/d/BCNL/MCwK02D94f3/tBa1OKb7Z84cXti0HBiP2u6tiDtmn/YALmGKLKxVyd3doEFFgNknNv09qjbyOB5JkBAf0cevV6ToRKlWPuQRlkPwu7Uo+TTMzUUwjfWVebkDkfpopibG+M3Q5yuurdbJLSSryVzUD3JFw702dITsMxW7QI6L1z4Ulf+ffHQ50GxAAAAAsdkO2xS8cVpWH+7mK3H2ha7yHAj078pk7Q6hwDCbZpXm8YCgZUqx+TQyFSJ1Lnq3Pk2zCC8CUckgACk0xpYlEiqrRrkYfV7YvGR7XEXkb2EZNUFKvZugLLl2hfllmTnRoTj8clJtGrGHXhr5YmMsnAI8x8lXwr4CUm5r3S6jZE6zqJTVfaHEc2Z4YotilcBFug1PbHEAamkEsJ3+Seda0ZCMu3XYwa7JDUZJ99LPJMSRgLjweU9t4ZZT8z0YN2e4n0YE29L54JSnvc+qP/9J4xsqZBMJJ3/D9/+gbs46dxdB1KOw4SPOOmh0wZ4u6aBnC6YiTNsj0jcJJ5D/M6SAZjfdfk13bEu/uiKktJFwppUYZ1cPo4TiAAAACJcCLG7lcYVnzNA/aDVNdiWrRfxzItDm9vHKrJE1FRGhXy+2xNJyOqYwIJn8GqO2RhAaL4OBb7gAfP3csesElwSomxwIF4F+B9iz2cZ9FIcuucn5YLAdun5Xp8blw8CEYXVVztQ3f36MZANSJpHGEeVmOygAAC5man1xS2uh5b2EXaIPp2ArfRGotuHDDO4iEjBqfMs7TYkV0PLejmYHJawIIsCB6dJvKFdV/lwdxILqygAF8KBlSRQSqw5xstQg5aST7FrHgtc5DfxAKUqsk8cgXqXc6+jBLHWWsK+SFzXt6xRFWGBf9INKfs4p/nY1w7XSXcAADHroeW9wPmIMM7trBGHBO14hYVktuEblFdsXgfG7RBPlNbtFdD0WfXULwPkSs9dJirO8J8UsJR9sg7SOwmbBtZA31luzfKiXEOC/ySYeD5BGMc4zVDmmSpyCzrCqe2TuIBZGEQ8kDbZpfkFSrMr4VKqoXDkijGzmpVG6/eo+CrBJb/r6VTPqEX0p4AWZDlsSGwjLLQEpoBt6L/+YaJXrbh+jT6FZSbOsBZIvQofORmxpJ93rK2GZ3mMoDnIfYLETMffq2BR66yYK4lLQTd4mZmIC1xXR9ikB3fTc8j8uULZYAv3nmRnW6DBRvcWUryGnIOESDNf739OSGFMv3YPB4DpZd/jO83rQ2dpFw7KUCgWKqGmGm9nZZ8Hlk7eZIBVhWU4rKcJzDG73qAr0Lf5XROrBe7d3ra0o6mR5uzvNu90DE5XsJzuWvkjgCbZxwGtHuwkXPpQgV3545oXsVReoZYaA81mb8yVk8UkaPx1yFDLvq33XGKRSJKga25GHuccfqmCX1YrSC3NdBA5w/TSoqD2dzIDFYUl9jL6yC3+sAK5+XbXfOCzbnAh64i5Dysu197nignDSonf2SykVerjSaXJh52DpbTImF11IGBhDqpY6FG2yFtID5J7WvUoTupqexjoheShFdjdVGXmz4juNkWv5GF3FWw6MYG9E82HRdHwWaZjOs7MlxVTsl6t7S/Qd8RzO4/1toWXJekzRxTCZvXZEp6+o5DMCnw81DXdLlTE6I0eRdjPTfhrtlqVqgvjkD13C36X4s4XASdifTJH0o+aGAggGAnP0wrSkLl6WguAfacfPxOYI+PXnmX0PtGULPG7oJXQmRbS4doOCjnYemFEkeNlHMETljP8IAe1fQxWQ7b9I637FkJqt25HfBucMJKT9hzFADuXgKxP5rnSpUTAPWKTIoKgwFIUl4B3EHNweTgKdX0qjPg8LwdtaUyFDsuzDUI+HW09a8wRxOfAT9nYwBiJwZ7pJ5KApbv1BeKgzOyuNvY0LyOG0d6auTln8676XsCcHM6SSO1h5eYEohNgLBNlB+67u8fixYjesgPJQhHgxVtd9YJ5L606CL4+PRgQbLBOLR7YALOn1WvjqfAO1MnXVolijF2HoALcO0PCt6vTsVy7ZQdVl9jfaA2j+LqwdOXwORvRkNCZ32qzH/AVZcJF4+idAXEQef0zhWmODf90wlyqy2t2seb/3ByOwgK1cszUeRszz0/LtGANMECzBY0nKANQ2jW7kiCrMxHmTDv4gPlWMUkgl6fPaTY/rwdly7jv8LrSOZJPtpWuZpIebq//pLHFy7BpTHxOxame8WFpX3h3Ew4c0FE0C+aMIVk+D76TCJ3f6dcnPdGV1hwLB/Y1J50QHZgmSM6NdWa/S21L/SOBXfc9pVs+SbMb2d3WUn0yTV2YpxIwV5M/jVn4qUltu2eUZP644h1CSssi7XGW04QkCFG0Br6nLXQBZqvIBy8Vj8a8kvB88PsexZYh4/kRNRn8Ag248lNzqWvUMa6Buf4rsU21GSujmie2QwD9oMms6G3DknIXs6OD//+5GE7vLYanhd3jiohr1RYXbXG/6rmDzHkOK0rD+rEFE5HJPCdY2kfOuKmOZCELIaFIeS3kitRriruumlZ6MMrJNT4i5+bpRdt64LDOmEWhX7x0MJU/G+8LFCTToALVrWTMSFNUttPqWDEG+unRWRNDnbpm+5ml5KdTBrZrmj8ScI+HUdzv0qjV5pudzOZGaNJx7O1Tx6F00uRbDrzb38u6fi5dDV3p40LmeAVoB/TnF8bLjwLLaL+ew58R0SAGmFEmMQGRz3seXJh7d6P7UY7pnN5d7iYGeW09AGJR5fxjx6Z4ADCEB0oey6gj9x4nEGftyjMf7OcsjnE0cdeSeFXn7A5hvDz4gPIQuno8l4IzyuT5ORC70WZ1fFNGrsImHMdInqKjejAU+JRs267Isuy42iBarB42x5Zr3Zu7BAz/hqLByhBJtue7LC6cSu2lCT36+a4MZ66vkwT+uJzPd2tVbrPz63zGTT55+RfZGtRuQVHv61Jp2yDoWc7HSUEI45ojNa0JsQ8g8XwgerC4o+FgRcTQtP9djTzllZWWMs8l2Mnni70bOdMuLYgl0YhxzM4N0mQvO5dJpX4H/bJQC4HWnF2ZfhEVgWv1ab0/98R9LI3SBdAD4kOH/Ov7t9vsiY4tbFuQhtw0+1dUnxj6oDdO1Xlh+N98hjV9nj5nx8uL3zIhXBgfBabSd0hiGHt7UoNswn2iaQNETSfoCnL9lLmQE211fx2UvJcITqdJ3naz1oSMI89kdYvwUPPkcw9P4TANBL+iQUmzkE7Hy9lNMK7R2Fi+uRLojiPtWi4Zj1YjpzR0CMCLanlO+Z7gPh5VUXAWQqkMkIrLYTY2zHnIhBBvp+TxHG3ljSGUPHPTLDHn1K1gs/1X5LE+otXkMxH8Ae5T6rhcT6z9zHr9riGWPzVQt10SlH7zs4t8DHWzTMhUOtm+VqohBK+/DBvfPANSn5JpqvP9OWDQqLvUnEq7L5XHcbyekeSM1LbmLj8+nlmUCxafk+szdk35xwCr8mjVdgWC+fTjVYbyXdaYHxv5o76ALUx09VhgWnMtCBTafESeX0niWDhxXZQS2fy1Kt1jKcPR0ue10L4zTeYmCYgaSJpLISzm8gH8UdWXWeUrfDJAyB3eBj65P9v3/V0EjHTQm65GtGo/Doy4htg2cLZGiUvFkF7y79N0MZ7LYGiC8cPt/5Y+ASN4M7y3I6BPeOYmp8yo0q7UeNtA2Vh9SwMd2W6DiWSQUJkpFBtFuh2VhvtA6KVlIdPlBSvzDnfq21p/i4Sr9LNU9PMBcVlZWxbI/BpkAN5dI9gSePGpMlQkd90WnvETrttYRSJc7AY+KLaZ3T39i3Oa/kBI2C0VrNSBZ+LoMxQ9lAL/dIiwX03uNWZZp1kh1FD4qeOEzpzYrsTFbZ08ctdPV620eM+0FGMX3H8mOM7KA3lhLHhNl+dHYSMMbbHn9paVD7Q3nNkScpOT2TvTKqzPV1UagCtw6P78mRAKdYprBnGEQ0WpWylWp3xoxh9SVfTyrrwySaswuGE/vpdTeQuNpmY4xZ2RwbPyWL2gmjYERU9KtBGCOHHQXpEedokrhxyoKhUidkqdkwvs5EgcDiA6jItwK3EbqppdoeBS5PoRVkFTPrpM/JjEMyrvlsxMe6+lNEjuDKepG6UYi5MzfI1bj6tCNqwdQ39qeWJidtldTMFZQl+gXptKHTnqy30a8QfCpAqN+h31pOeuRZxyLdWGiwtuN4gt+MGXogxClqJI7ZxJAhMeoZNgloAYVNq0OEQypAgZFcOT+6gRsnBIeS2FcxJVBDksQjzKsfzYJc0Y9IGiwozp9yq52dc3Q0F9qQFvBhxNPODSB4g/h8sfkPipmj7nRzLFelu48ByafPGRHgzjNeDEEntpEYXqDoR1x36f/gpv63cH/0OpN/TOHRNfbJKKskdzUppcI1zvy8C3KM/aQ2xWBU4lcS8sFKYCd/UDbBYs8USVo+tUm6apJXCneSdVZRgptvRwZocHKFoQIBgDnw6uCjTJpZnYROsKjJ5/IrExMRiB7vq5M9zFOcLO50lZNgGz2H/whI8t6pu2NUDCFPwjYsTpXkToqOHk8hTsLP0j5MUjVXaDDno39FP/yLdYNUud0wiKSSTFATcKw7+cJ/m2aTzWq+Cx1fOb7XCp4zCAC27wNbsNsQ8OuLJcW8CKMbmq1VVLKLuyRwghKKyznxWT+lgfwcIIlwRYgRU0Cne/r12SNcfSXmsJ+VgFke5HsWrU0s1oy6nlrtZChomePg0HLh/NA0w8v0o9JIVNK8GGo/EUyUVVib+vKuAxt+5TiUZk4K3UOOa/rkT3A0GuErr13YHujUXaAXn33dhm24BwuIGljwwB/Ni37GY7AENDfq5LJMlQ+tjg8eb8g+tFpOnJFlhsY0FCZr1v/t6UEZNXRq43jsiIuhw1DAQ7WXNj0UrC8OBZn/9BkC5W2eCOqqix1+/mYLVznZ4qtZXM7szwdDgJnCl32+LapC4S5kerdYIY/SbTDqtSI8eobkqXo2Ymq5biFnMxYyk7v3kjAu4ARnYpXp8h4JmuU6hxzXRIOwbzrCJindGEnaVneQlN8YA4VTIDqtGFpdxjvlYBTI2lbiprMF37eFjq300z2J4lNErqtaUEtmmrE3aoYAFTyynx4fKMkejwdmMosZ7zDH/Wv+vVP3DkGvwTUq75F0+YHKGCV54Baco620XSYuOVkVfxgWUg5mDhGaEoQYYco2qWveAeOLbc9CHCBX93WgrtQa0zCu9iRnynbkuyPDhx0bX1SlSp03Hg4ebqOEN0OKz18o1Fnl/qFliabsosnYdgmsn091R78k9wr+fh6YdqQ3jqy905LZNyOeXVqu9VA+k5cX6hPiH3jrLtNzjKZBWkdfB6T1VotHEOe/7Vc1/XInuBwj3HAie85RF4OTBh85zWl+Buc92YXPya1XrpFk9l62YV26lBLnm6GNR7x1E6Jnp/xUZT7fXUoEOCbx2REWzUaX8PKR1idBFSSCtvot/xpldUJan9OGkQpby/t9p495181uSPUyOc+PnANalcccB9fOBUWcN1/QsaeCWv5g0kqnnTRksNV4s9AEBC+5ubstYF4hhtQZKcEANJgOEtYqyJFOfzyq2zS/63/8m7Rb+CmGiMjdMTmaV8TOWx1hRcKHjf9eoAPl6Zhs92eEcHRVtEgCISv43JFIkyfwDr/wiGGeOJcAjEB8rvLbrHeMljxgONViIykYHkXwIFm9KR+csZeAcX6q3XRBHXKy/3MBpic4veT1iXKkDvwJ8nZj5LXRo1MKlXmF/MwUWEPf5n0TvedauJMpUcX1y9DD23/4Gf0Q3isDF+b4UGD4avA70FRJSKRWA7xjRbBr8dZhJw1XiHNCdWzlurR+2WSo1MEGm0vg6MfuEOzbsjGdKBweyJSZYJu/ngZip94euuwAvfwAwTccZ8VvPoEMi0TKSVZ6MClrARN20NT4ARdagj8g7pHpqYrlqzQoa498DOgKDuMR7hWkYw3opUzea1/SzXNZuUr89Ya+Xbl+UBKa/FhPGbtZ4NehJwrTj1bYtAwat/p5MIx+ZwLcv1rSzzl7bO6a32HIqcGfdK5qxd7/rkgCgUiqGTsT03nkzkgE40CjbwmmEo3MGwbf1vLscIjq1ZK5cHvC56di56MVQkSrskPksuIoDEfydgsXfUxbI7aum9f4OUkYja9pN35sGJ/G8qWHKliWBhS2iga4LLi/KkPy0Hwka6lkJ2cTsNXanDprbFbNoicrM3qkNRKzIpCd4Hi42rVaSOJG97xLPI7cwEPGYWJVzofjh0Ei4zYZCCRtpwBdT/T5V7cVEZ4wZdzcUPc4vI0oeDdKuRBrA+YIHkm6/dMQYXUiQfHFU4W5agENdBN1ZQkwT6wiRYKHlIZ5QgYBikPFAmHQPzwBnAxhGLlSXndkl4esZ/StZ5VdsTXaBPe0lQbc0vAzxwjqVc0piJMzg+WfwDnChFu5ZTMS2Ayp3tmxcSDbXRJZSSKH7XOCbK3qpCJM+JfxiYgEc/TxIdojTAH5lwXFZjCEqqbWVuEIizAg6x9LtlOK4cLWrZeKe6XAh3CLZXQIQqdG1iPoYKMyBAhbB4f6BmKwBHmFabV2vSu2posnwim+Hk1qfLw9j+2W5/Nzu5JH8uTQ2MuA6lIgjpeHZQ8uQSdKibYhjW3Hp2AwS4JZwezdmHCOrEm5jy19LkXmBxDm28MzeCSubX1l1KYJjpSS0k2JbavL7x/PBH8u5q6j+nBZTrtS/C1K7T99lISCElzydM+gmW/0fMZUvSOP8JfxMwOq2kSj9aT84/5y1Kvkc15LQ15TQEQBYmOSdoSjltbowISKXK2Q11fSZuN5K6IfNVIFZ/eKQguuHRIU5V5HHDgy/HSPFQ9vR9rUvIG74EOhIFFfMPHhpdgaigCNFKBmBFysGf5r5CWhjLPps35BUEjpVkMtMc0OUp4yjMa0sMVph2UrBmA0Lyvmiqutox1efpeJ3xvPrKpKUDhFTe+gjUgm06DmutWtv4kCoU5hwoxPX45Pe/sIv69fu7+wBhGDzgd96kC/sNaW9rWMeTIZM6u+/z/bjHCCe2xLVkQbr+r4TZ0NSlBC7pcNhfV0fiosVOOTr7FZ7qg1LxWMl06eA5fODH+uZ2GQ1j0wqKs2rra+D5u/CK0t4wcfU5i8ZWKCz57PKWHHHh8phDXVhzEDG9JsP60JfxYZcLiiNZiM6AAR7ylfbNHF/CXgktc6fZTgSv/m2YvSm4z4N1K98rKZNaielWDojTH6LlW0YnK3muZqEBNexhfC0Dm6qoEa9uFIVsoGPJbE913zdW0RwGqFWagkyQaUgGgR0kBogOdg0htvYEXmv2JQ8ApZqmUkwiSg1FVX26Bp+A0nXig+ORE/cDBT6OzE4WyxQ7YMGHzcy3dOc3t9+LAYEG8+nAA/BlFm2pRtyqqmQLTbyOp7RGkhPg5cxinenzBxmEbh582sr1DsIKaC/4+cyTcne3Z/PUyXEHTP0qb6XWyfIry2MTHtR+D8RJUz0yppG3qp8l1ZW8Vj6iKC4p7vpYp6b5JKYXoMc6xeNcsW8JQQm7s6zbr0h/evyUXVkLc+ewRhgTOIJFVg2+Kae2LIidL1hyHFIdwuPwvygLv1YPTELs95eLn+a+MYu167VY6ghBo9zW9UQp4lKOr/uAsfSHuCO6zw+e6laoLTHNHSLrVMmOoF42rscYnAxSV+uFHAO7u8oXpnBjXpsznt5vepTAcFPeiOFFFZgDYvVivqssDMH/eetsLWleUe49vHz9N9bv0LYF4OWexE6fjFSJvfVqMSC8pDgnxbW8D6EMqe7uooHG5xlf7lZvM675jFJFagHbZy8OlcdztVSkDD5H6WTwT9gI+DxkfH2CLY0/lc//Vk42kV8j7RG/M2UlOYDmu6XgDouzWGg4XQ6KoxWN3mHaAug3IlAlXS2ovpTU8vKAocToieRA2J+Bh12fzVXMuSomUUPIUJziA/1KliBR7PYA2IIauyjmXYhKRTb7Vs5sbN+PQnSK3lY5uNpy64ISrEhU7YNq/1Eq/GJL1Ntzp9ua2846F4uzQZUwhDFNOHRwNXD4a/Jcrk99PARN4Av/cQVAlSvn2DtEBkrhNhFlkaQbcs2sfwZfgr95iZsY/oPdLZbB2zREiIS88rkMFLbV3D15p/GvcNS0nOl+9paY0R/l2EOoQeXtsIPRWw9bt2eiUTtL578K/09XLv4x/QO0G34WOzTYFE4wIsBCZjrTJXQDzKBttRJP2zgOEVy7sM3ssGhcWkVs4Ew9fp15TumiZNAz8wwS6Jhwjx+AFSgjHnV5mRgMMKUWglli8dAY2XsOZfr9TJb+jauEmeArGYmkWyHe/rwI5r0pyfkIp1EwSjcHoSH45mNayM6atuV4BXIPhh8Km+E80sw9EzBHFWyY0wkXYVOoVoOJAZpwx7Law8qkGA294/6Du29rDW3W13F/uXtiEHUyS3Jsl037yUuvP5pnYejcwhbqVO/mS0QXbzmcA8UAEKnadKHqHwMwap0TTNxRYPpmKqOJ7i4ZlhCXFTKS5+KaA4qZR5zkl40WSMqJHpIbN5OfGuackElCzgXjezZCdWl+CdVOuke1SeUbswNMarJ1D1M/ZJhctYQnzspew4tCcqfmdw1DlRkkkDrM/RhNp6LU7YYOIMoyDSvZPUmIoiHP/BR7IFavjjEUWrgPrHE13NhNwarkUVmjNaAjHk6d7UvMdAYbgfZ4glAGxz2a2q3Uhrzo5MCZKWy5hPhlPJiAV46C47nK7Fr4ihyBY2KCDPMnb/kErdQSP+AToVh6VkhBVoOgSgD9X8f8567gyfMJyqE1gKATlPiXEZ0pHoUoG7qck1ZChuEJhLWHWQzcyqOvpW7RaYN8EMk/D77/aYViNYda/BS5rHBPdtPtB/4WMUWHP3k6Zi1Vytf9jNthfmLjRovW1n+tkyqkPTtPCUbWGMvs+T99+yw131tRy7YtsE0ZtnTZub0+wWLXVi/7GKDvYdDtSYvd54cEhfub6kLu+du5kFuyR+QT2IBtN5iqg/6RNfVZehsIhDGq1rlr/fDzS9+PH8i/32bwNjL4nk4KCIiKge1eZT2COil7Ec0RO2a7xEJpejVChK1kxvDqgaEcxsJeEa8p0Z2M5rX8HLSnJUzRct215vVQZFVLXT7rdjc2DPu/3McVc+2D04KsLiymRxFhYQ/sibEIlG16ZR/HcWod3NrwKak7uV8mWVeUu7nXN1SYPLkVotXVeniwZLHIfyJH6zL/Wf2aoR5JWILQsdQQNXHD1bYTTV0NHs730HgDL5j5XFveKO1gwLgWGjjK7g5d7rQuRcf3LXBBlC+5mKKjCKPizkKp03KKK4PEHcISryzdRpG5QGrgDp8g2+ZU92i2BBYSQzOw5ycUvqG92JaK8WSlNvtBK7W8HEAnaMSWUQ9RfjjOTQu2TsSAjoYk4rsjuEqt3r+QtiEZ9Q52jjLMMBlmSnt1j+eeolGu1axbp8DXeg4dSAtTA8c3C5GAjtDz/NncDLvj691990izQ1XByJnRq0V9yNUO2XxOzeF0XzM2TQknxII0I03r6NWplRBEFJRrQNj+YbLRkNJyaUqzG4s8sQM0LwgCp9W7U7k8gyXOBtC6GQRBW4oDtkUUV5FArMHwZqzph3+h3JzU/j9nPTY1qCKJgJqgAici3LloU/q6iSqoDfHmmb3hPMLhW6HQ6eeb4s5hLzGgN+hJtoiccrg7CaQgODKzpP6AoVLQmrupaw5DyyHC6yzOiAFhuT2gJq1wZYhUMlAgaW7foAB2Vj17e8x20/G+kLN8fDx/uZYNGzrIdCHPATfGRrZzjY4dQznaMAqw7/j/PnjNvoNnK/KFSk8l2QuIRuMXxebz++1/u+NNPngfiGItbg8UG7LceNix2pJPepvKFOiTB4mOihYufL6JRKX53h3dk0PSgBrVQUg8U543b17wxI2lGo0fKoFAzRwEiJjo43JlwR2ZcB+wRDIJnc9NL2tMzs28lM9nNsZKrTMSThZdRASTMDfPSph57n7FvEZ+Fie3KzHymGecDH3CAAdlCa3Mz5HvukWVSDegdL6KSNM5fA4WX6yolEdIUbZyrHaPm+y651IAqAHCCsc9Ug1qIAZ4sNE/mvsFi2Ev2obf7RfO++VmqwGK5rIkAbPOpIhval3k/PIg15ohPsYoA57LDXsQHwWGosP/DLp4F6aSw8lrv7Fh4AKFasBMl/BURRziOEg+TKmfKFJtymXoS3bOxxAP32T1QLAOnpS2IzEzkhj/JLcy9Q644wsjUu9bXpzXk6pW/EaCtMRxeH9Bk7J2hPKYNzdEFiVd7BYsITTHehiOvCXPFuNFMgci4jJwzYC7Rfxx8U1GLjhysqRkwTHri4M7s86U+DX0/wEzBWCV3lIc7vm/ENoK1eXv6/0F6kKTbezm94wrjzB6ZnULW7FehatqlYEmUotwZLVlojpXuS6VuLn7SN7DFq98eihH2P+GVF+DGc0rnWUgZ3Y+M//iK+V45SH2uIiXE9Ya/r+U8HQzQwtiSfjKIeNe9B4hOXw7afEZm5Us+nqyBGEtTVTKEx6z5kNps2QYmrmpunUCH6PpOvrCUrc6b9ssAAAAAAAAAPmjqpx/hLE+dq6osBCVHpgZXpTl77Pk/feI866YsiRq14LyxrY/m1FNJBiEuEuzMe5Z7KxflCwrhjZtK68eJTe4StCSoF6r5zjLPPrS1eabz5KBcNbAaRQz26eAt4vAVu2Ln6O7vNlLUg9zFxb14bq+q7xvQ5oF9Tv6Huyvs7EhlfSkL+ntgghmkg02O7DZS3oav9k8I7hZz6k4/LA87srHiUaGBi52CjevJzBsQ4Ck9EnLLKZ73b+PkurmjuUHgD/hILU+X8FV8CLG5HDSAcBWEpaNysV9zPOuIwj/odgw01VewxAJKJmbaJHyo9cpey9O+79KRKxv1JEXuvnrNkuWU2U8qCKektJ7yWTZ/zDGuPtDcNzk+EePBucxeu6y79YOFa+oCDy75ufY+qPAIIP9HKOjRmHgFT2pyQmA5m0UJb4mTZ/C3D7Io/pG2Mc8YdSiuOEg18278fqzht5sJ4feENJ0+/KGSXKaR4zTQJXbcQAAECv7TYTaZKTBtEOin84ZoS1cWF00Ly7LlEOmuT2TPKYhwM+46GJPtBvKSUAryPozoX4uatpZ7Le0x0pSChPPrsUBa/CUrnZqZ9/7Rrtx2SuAj/qK12Q7E7Yb+JDxUJSuu9UI6sZufN2+aC9br1LzFb45/XsxloCfWZUtlSQSeu/sFfZRdDu4rBNB0799J41TkrGY9DQh6b5OJDGSBEgGyaXPLIljj+F9wklVwWO2OILLs9cT15yTLcj5T0Tnx8Ii9YbFBbsQ5wE7B3kpWRGCJgShNS3+FiCbsj/Ava3Ad9wdT0pChOXKWBuoPua8y7gnydcR5nUENZM9JQzBhhWh89vyWtI0MI5lvUu58EIUgYjk/v+3jIR1yzgise3GCl5DN33jSTXPKWfi6jCQuL/Hfq7I+saTMwTvXGXsrYcyM/B/45IzvnYtZdxI82w0sdGhmHTGMnfHoPE6iieNqbksTRzyeiA5DsKdDov7wdvw3zWebf9nXFxrNFJvj4o9VwBDNaYVtbLZ9kwHg0J+NPXcG/E1USz10ZoTZj7gnUJWYuATMib7Dh1G/h7k7LItKd64sXSdboMCY8G2YD5BCYr7I/ZoGCjRuE5C5/O/ZWNO3LKxdpuZVmql1daK/uEaT2Bai5t/nkVG/sEVLSH87+2pIwYUkB9Zev6AL5PCyertu06XF+gLfzaGjapS8KLupBaEM1jrWpTNoNGS7hryOY2GoKsJV8U6v7zli7HayFO+KUpz50r5ZI0lICMEKIcL8T8AjVFVP6fcJoiOjY9G2Cv44BnocHtdNOi8qdD9tf515kR+HalXjNrtekICqupqU82ymI/6ofXnDvV6+2qipyiPLM/T9VfBZ2gTnN+oF12ULu9yTE7BNiyGJSh5HQAZMycvc9bNeiZ6laElSRx6f34XDdAOz7NXmy8wvIy9NwSl9gOL47cwvolXtky+6RfJb4JVDh/aHEc1BaKBdrLZueM5F1aakq+CMrnv2Bguo3hUkioELInMmAnQJ32mjJnL+HrViLcJeJVi6xn7PQKEfG/A3gK/7phjAmxtSO90TNh0lEI5WUIdaHp3demZ+r7hfT7cyrrqbtEgJe4S1ZdSjEX/k5hY9Oe7m8hm9VRnngp4LUiYrZKKijhvwCANBZcX3h8Bpz/Ucc8vaI99TkuTJQeUmvncdYdSsI12iSJHgBtn4v/ZKc8voxit+RyrExYskkGZDaUsRILxOJHGZh2t/yIAJKfeFHOw9MHgzZFT2m/A5A64Q+5wR6SMfhuzZnUYJZ3mS0qo/icHqqHU0v0sOAw7UIMkcymmlT3zqeU9GGiebF6ZWfYVf2LtniUrAJWSISoDF0pJPebknX45xVJSWegfjEYAkmGzv9HyXg4p+ZiGt1HOMPxpF+j2bo/IvL9xzbwxNxmjAn7X4LMBAMXV8/fVw2FHrsoKr28LX3WeFft5oUwniBBNgF4LlIDT2kiOhyfR/eadM7/LCSWoW8EjXGEGs5zjvvN6IW5Jz8TZ6iuJW243a8uZQPAUoIsjopoyDJarcEwB4nRmBD83bbmAjLaWnau2ATGO2zxDsJ09IpYBLWj9wozuvARrM3F2vdnC7bcP9xW/ym2gX8noy1SRqhXcNlQFfVSiyWacZqfKwPmro06rFEGcJEU8bITx3TYkWuJQO1FwFX7/H5oqGrfpr+GGdb7gMsD2qENeDbTGvppYFeEShgUcXka5JwH8a4au61emCOkin1pmUGiC6vCwEArRe7ExoTr6Cc+YX+OipGdq93LHn3k3jfvdo0w53u1ye7quXOVaBDaUSNl2Plmz6634545K+uJnFnnSf0pj/eZlW0P23t6U8Q7TUXUU2PFHtYKsvReHdt/alS0wYIv0kWdIl/q+RIWOpuGgMZGpj1XpuyNbIUj6cNdi0MjsGGkv8f7NP2bHZLVGRyeF/VOT9CNc3wj5d1bipKcJwg/7QAwwJbZycofmZpD5QjK82q3TCeWyc71jE0rr3i1+8AT2At+sjE9aLgaz6MxmBgGGWlsE8FTnOXl0bNA0DKHXuj3qCZI34+Wv592friUbjYvCTwCmIh7+cHTYv/OGUcFZGAFONTon+mFhQl36MlwtOpEoKKydxVMtZ1WcM7r11O6GZBtdiyM5UP7oloJiM7XYwi7/5IoSycKGaL1xNIbCRtsdWjuFB7B7inK2E5hJiaBMiSpZHJDLW6jnDp5EMiGe5euSh0hbGoHpVspv670u4RURbiyaad+FJ4NaI4pd2Vkjsxwa9Y8AHCRF2PzGrAAC/nmHLXYyumwXfldR0HEiyMOczPyUP/btqlxeIyfFdQeXs0woZliP1kx2e8DcymZ8L3qK66D+loUIOeNaaX4xpW3Z6nuFhYV07x/YtOLp1juItlqVNA2DBXSgkkFH9ePdEwa9pJOYOxBYyRknxbqMkZpHvOqgA+QlNxfmmkz+pvRqnE1W0/wiObMkL0zrvn/f2e/UKb0NlF3ygh13tRA8EHZWG+0DYljybNwdqFvumZACFRyWn4h6HfIVuOsuEEabBxgdMXYd3aQPDHAXMqJPppo4c7cX+ZCFhSbC2gr7ak0nOxxhzPuUyatD13YRDrYJflyIe/Gm/1LcMpiUYGwOjzNDjZBa/8j8WorHRh7Y5dfOvh3IbXAwC2mLD860crGbZlFIMbPA8r4wQz5+WUufYduMZsDYC7JEAUWWmnjxWmmj+NjRyR/pqTic9TqXRy4ZUDp6DRZTVtgjpgfoE5LgFHsmLSRyhNx8sR3W8TAoFk7DUf77Pj882PbEbutLyNYQUkSVNi6UQxdC6EQxYWc3EL9ymiZTttdkWar3mtb/9I2nD3LzoCTqWwy06rDsETGokwz2LmnHehql6CpN2MfVSjaPyjWFToRp/r5bPnkR5fQUP+koqxB6F0Ivk4FjWVc6q0RcFdBU/gYtbbcnCUwLt7GsnBgRMXhsvyyuakfqELS2QBAsc3RUxFrSY4L4PXu8Irr1WaAiU65ghprOmTNvmPx7q3Rmx041HujrKex6CcgEPxDxygMPUDErXPIUv6XkCdwszjTilYAXCQgeJk6scol5T8d7a9M9fA1gMxFLdCkNLs8tlOAX1IH69Asb4kOeueFdFn4aHgdk68pPnRjqa9gNstmOEXLPiSaBawyD6oKKN+WzD8nNa4vpRTyTMq4JnWNaa4hgCgI/Ld1ZbBeoRiyrWdYhWaoBZGL3aVUP/H5A4eFguREs3Fy+MPhBvD5wYNQMbe32yF5LI4UI3o1mbXfsY1Op4K7e9J5wv5F1e03dKfBRKp2yvA2j51K1OWn1tuZuzM7n+pJSiDODoaqJkvsfSiUwJ2bD/jvLW/qQl3lP3IAM20aU/pLqkQE1m44SwrasOnQcSPy9PEjmRJyOaqiyOmOLfu8/bDImblvLz4DNciPbb4p6GKcR1/I9KBBfxud/FtXn9+PyeX5OMgpd5bbnXiBxnPLCXlsO29F2phsj0ZenqypucHu0TID/WxMjAZXC3F1lzJ/jx7fQyXUxVwM+sS60DUrD/J+vT43Y/KCB5Uk1M3bsObYdgyXEnR78Y2VmdgiCFFtHGSUm89wM/u3gV/swx3WGi9zO0xFWiNcDQOGQEz5JfdSWPg8Bf7oFeC94SzZTXq8H1xGoWm9Yis65BdscleipR2TsBt9rQgCoZMgl+OEosmKFp2gUZlGIVEO9aWIwp5IbQHTvUGNjs5a04pyC4HTWSFGRSxm3EkrZiufbBYH3XZcEPVSxykzvU2uJ3Rf7K8FugwCKhi3AXMsABBF3FwC0PJGUFqQ+y7uJIOCCIhbEXn9QNlk2v58LPLCvqvJMJ2CUu1KV6TK075pH9tsW7BRTuGFiDHt8xSvAsaY2aEbBGLAG78zojypaqkllG/ZqhFVy7aRjtwYeUEij5/jXt3/5rKjyvk89Xs7B559kWWRJPUoUI7k8fm4LY8+5VVOMHyY31t3Poe/lfvS4ZFbiFN6cIPFk9mYn1KkkUd6ai09OZ2RmoUYE/BsjxE+MKe+lfUq6Acmz87Rnr/xq06fp/iJkyRtyhFdQiv/wi1IuxfLrAJUVGftUyI7R9ttPs2T2PbO8L6SOi7jAH8AU//7mut8ViwwV0tmPuIDHngh37/fsZUDJGGm6PHFCcPKvZVjX5gDMi8jG2PrwzIqMaP8FgiMs8ceJkpw671A8K2OuV5oXpuEUb0C7x86iG5R7rCfz3X//yL0+6vLnWWrci3pne8e+zOOJ8ez7+GsFH3Z0v9pzxvO902zTlwl+Gnpz7VILYKxWv+K/THyk5/aym3bRDiBcRWlTuqWzePzxyCqqrkt+HqKfkZ+duy2tgnU/xr27/81l3N/OescboD7DL9dHXCVEmqMORTDB8YJZ2mqac5shkr3I7T0lQfuzjajg5I4WLDo+fiuUpfUqSRzvEbE05j5XEZ7nuE2ZRdDnY0aJZxYFZIjH+ugI3/jwN0QR46wnuRa24B4Xeqtgq2nfb5eqmUz75oQsFH0sys7DRiQCihFmOLepMsB7nZebverHmY4K02shYf7/xl7dVUI5lz8p9tKoyE+05CaA3PzK90f/2JwQva82NS/jss1/37nibWfd7UT9f/XcMp9J8XXw3QhlArwDz8lhW08i+Swod4DctGydmT+8huf8OHyXe7VlPYQDTuFo0IKdRDR/iwaei5d0B22neZvh1QyRl60KTN2VVZdUzj5Od8Iz1aKmCAW14VeLRp6/OD4aiVc37h/zcT1ZfQcBx4Tl/CO1TeA6d6a+lZSGLIWS3a2GI/o4ERzRz3zBpp6MWaCtrIOscToFcawiOhJ40Go/AU3TT0joTrweKrhaZ03tAd69CTj0cXQV6Nb/QqCc+5Vt1AzYKEQl8ntTMQs/jB0d4FV0fX7wqcD2a6f/kj7uJydlyn6iVgi3azHtR0ZjXuzbNc9CVomnI2UDKWa19Bo6upVjYMfdm78WIyNoL+CQUcSFnlR8bgdKnWzu9zK0oie67AmYDGS93Tb9O3PlgzDEGhgJlHyRJRty8sawgPOIZSuJdYjegTTFLmsbLpF48iRnBpsM1HPZemSbLHnhclu7ZWYiol4vuqaW5aw452Nevj15remMpEHH8v3p6c/W6TE0x5XHIkaLu8SiHm/XvCpN2p4WCfR8eY7Pr/5/jgJeh6bE2xFQ7dVvqcl6HIPhjrn6m84HxWOzXHVWtny8R7cT35udtxJnj7DkqAIOZ7KmGIFsx0nRRDLI90XA+g+nnAXYW6TiG/3MsHVgpja60xu/WoIpDAT2aSA/IUEpp+xDhBT86/bljp03Qy0druF+XZqQG1CfoNndRUPvcneVzo7BT5ud0SmNm3hUCscYSD3E5NeN99HNZkPKiW2KX1xfwRWTozXnqocUpU04FJsrwatiOZa7cvMUZvcRKhTqGrBxrRvKTFfKOwG5RRA444860eOnvBizrlNtaiUxV7Und/CaMkklhIG2ju6VfzNcAlwtyLhCBR65uAhiVpGBTZkO1VJASB6SUGNPS8vrE5j8uND2u1+u2DKjNHBOAYPeFkS+YBJGi8Gl5XgIc8OlSvp+aDTJg7M6DsXnbO4KvPs3czQJSnkwbzzBWXEiR1LUFTjey8woW4a1LfFXK8JgVZCq/wmBIK4YlX4bxl6Ocu3pg50hJ3jKO78yZUVBajzvraDU6MrzjXhDkMeNCHn/VMG73cuhzAKvdN1ckwSShVA+AOZcdQmpYdhAGI/5W1x2GtZVfiENIGAv4llJxFPgl+cPCcBoq3bceUnvgR+ZVlae7Rq1QvNLdEOW4eo56mF3Ey6K2zAuUbT819Xy2Kimokyql9lIyJxk34cXSiDEw1SOcjf3dAgEq87QkvChxROCm/5GUqDKaMr1jXohEMAqlT/netnQA3LdR/OIO5yuYieLyX+HElpXNfNiH5G29+VhAjyAHHMWrkwq+Gl5SeKoUwzGb7KmiAZr/mYygmRbhVbLA8BZAetaqtd8ELnMnNzUanSmWQs2w35zaOGaYPAg6p2j6FR33SGzjlnpgFt+cxQO3Bd6FrK7ue3O6KdmJxSmHr79/FP6GP+6hqTTs2AThsl38tGim8mWq8ArxaLQ/oY1f4WsXuYEUTJ6NBttY6ZoQo/9GkZFioHlZRQul5vs2Dj6FVto/Xt5rB5i+9gtffUMHSFMqhCERyPo/36LEdq1l2xmyvOb8g4s1BrGQfhEI5dnmTRtak6Fx2+hLf1GIdSAvjQRgGhTqompqyMAssnbGT3UEYF/H3X3O3xf4xJwHLKEtWfc20ES191RxljuLWRBmrl+Hgpll2mUC5SDDo7omfKItxrqFaeh2T4OhYe5b+EIVX1z+oIEjFjeVqhLl4EFaiO8CTItU8YOfmj0pmrHHeBjQo7VKA50O9VsnZknvpeiRMbddWWJ/mk8G8TgCEd2jLDJqnq0F4ML7xVphj7Q09162KuExNfB+YBAEDSE9OayL2Cibdmw8EJqPDbJ+ycb0hhlZV9bEOmX2VdS2KTSuUuyRV+XHGKxUNk+6E75h53PMTvMcNMijw3Ofk1XOLKVJOQhpzWYPl1cUVuSVmWafuFRmSotdeqObtjHsQLCk1bfTaRSHT/U0+zgYARSpZ9k/yi85GOH2UupoJOJpjQLKCIeRm7xJqJRRQ5ZDok2y8aHAWo+mqa2ozbrCodqayM7tEZRbPjthqM5ZKSOxsNQW19MeiL65r2gCfjStP33OVT+4qRwTU+6URyOhbBY4HGGEKlSeYyzPyTzqInZQmlHItdbwTtfZVjTP3VfhpGbJvsKvTP60e01LPopV5ntx42SntCF9K2hz7T+VAAJ7UcumYTL5RHI1VKtyh6wDxV6J3BeZoSKiwPEJFiI8+z7zdb6FboUT/4H+wjzXKg2Zvg3Co150/NGM1FL0hAyep6S5SjTWjy88Q6J4NKrhV74F9JvrdgIxpNmR4/XQ11XiziXWT+7F4f+89Ur0cP8NsOPFBQrlcat+832eejHKCLZBHLm68q1ItP2F5OVKR4nm4ukJMhhNh+irdxGL3OFnVXviBr5YoigF/DO7vTg4acWzkPt9RtUS3pEKAJLTd1YEMdf2JUXMvqGorBOrWbOcCGYow/QNmC8n5HSHwY/1tJA81yZMWQg/I9atI8s0g82Dr2TTUuX7RABeDBf3s8oTbWXbM4Rr8jGgpk32rHd8AmMmg9WwhuYJhMl+mGEeqFsFG+1goMM/Hlu7GHtRWYeUn3yOhTj+Cej6PQLvhd/lskUT3XGjc0xAoVVAylknWn8so5za68FVrfyAeTrryPQihjUKzPUDHXTo/v8YgRi1E4AAAYSeFj+i5ZN0BIj19cIdaOfTMjzBLK33GYeWmil00MRD1zUq5tUppaR0zlDOCRojozbemJqUrf8xp/AJbStBHG3we5+4M7ZAEz7prFnqt/8UQauP7S11lzn7hSFT7cRQfYeZuT000WNkg5RBzM0rGMzAYArWlQ7QdhbHKrweXUo4vEoI466EeoCb9mtyePKFhSJWsevnuJN/6ueF2bFBPjtfWbz1cFm69pYBSphDaPCIXSmI2Q4In3ouFwKocp+Fgmn87CFic+a00oZp5tzGJBKeVtzPpbC3kfziDNBNBWQTFiM+1ebJNNkd7xZvGnn+czQUeLFnt1G9b8T3YUDzl8AQRAcGWCY4FHN6zfG/O2C5rLIKx6v/2aN7j3Fhgj1dVJxdKt4P2qleGg69nz4arv2oYbsvv6Zp2NlCDI/1GkDsQG1BJQ7Xg920aBfCfFVDZEq5DekNMq6LyFcdvf5s7JmgJv/wbC+V0322RipEksX4isjqW1MBnNhACg3aPMtYA7IGy7X4fHPFIrY3EGC7TXm+cg5n2yD1I9A+s2gsxxd5MzW7cXMZKqYwUrhEMu3paKRJSKZcfNt6KLBKDWFDO+IT6FsJ3cOiC0bgxYgFZH3Z5zeRKokD5wefds5pj5e1ognb2QE2aAdULTw47C657B0DpINOvgrrElS6j61uzK5PHrwiBTWoypQVbV85csMz6p2glTXpIuGhPzcqJfYic1ZihgE+dNhfs/pVXUSJXMDinrajid/fsY1s+0XZ+lAJTdJ5UpLtilE0GoGw+FDbpe+coU9PfRuw5Y8B5AMRYarKFx61ET9lp8d9QPqdQJ7fgUq8HXF3LPsNLbrjoQKfQl/90YflXoW+H5fNUQux6INH4gxatk3OgjFmt73FS3qST7M8BrzzsuspWa8OXE5L5gQFzJdeiyXqaPTnF/fde6XT1DCU1rfdvoeyI1dKvDqEAWYPsH+lgWeVr7Mnv4fmxDbBQ26FWMVta5AhOKaakm1p4fgxrNuFeTVnpBHSTUAxHOKi3yI5ScWlTmZEzu7wVrrE+i240bHfrE6kysb4bHp3L5W/l7l5MOVloP0yNDGblqYtFH7Kf9intNXV+eoLmAHtajSFdnLP0pGpmkSW3RayHNNg2tJxSzah/Ipf8ZKbBi2Enytq35sXhL7XJwyk55zmYNFEUuI09CEMvQf2iIMnGo0M0D++ACfs5gIckqr5kREScMfTt3ZQTqc99BL2xDbRt+TlINhDwvCEKOL0sUkvSbc4LxhhbGs3VLBJXmqmVIoddY+uwjqX8n1MorB/ZWpaMxkAwAaCV31kJoMj3N6mvmPenGiVgccjAHzAFxzk/bsXX0AzWR6haUQUU5Rr2G16dP7+Oq0rLe7f0NLkLlZjmX89E1Y3JwKHwDWqpbj4bFuHfSqXHXIecFrN3MSjRyL8njOyZmC8sNofzQmmpzT4Ws851t7hbzqfDa9nY+h4/vjdRIUbcqE1O8N6IssOLiKMJ7691odWwP/uoBqVK8uhvQD3trFN7PETA/9rVTymMbFyKU9ahovFywIkVeMoeq4ONX2niPiS8MCVBI8Iz7ADfi3AjDf6b8Bgse+cJeXa2DVI8h0hCUjgcbYfTbPpyvXSWPo9EzqdxyHfF8WWEFMDITWk6D8fnSSQMG5noKK7dcLL4gV8dC2rQokjQ7osYi7lOAbXN3Ghrl4Be642vNti4kQCunv8DH0FrWjfKuvnqCLfYAs/H8e1wp1c+JUUw8VDl/uIlfCkTFLrw4ut8xFWEnUDXQiJasafcp6GpLuelcy3T4FDl55hy+FVhWgeo9DI9IgtQ9lwejIoEhnnVctUWlaUt3ItaZVvDLt8b82i88ZJcJes1Dt5f72/fCqE/iAwTidTK0NM9+hsUpcTGtcBVNYiy4QaP7Xlx5K5/in4bYxAy/MOfsx3SQsAKoTsxUlMjrC45rcO1epZO7z9FGAgaa99ABmIbway2k/8H47kKLAHPRRKm4k0dA2Jd6VAtaRV0eqqwgJCu0dIoaIJLmyTnzPjz1ViRG6UR85e1Ky32i+zRhDNNSRfzoFxU9yvwJ1BrlTEa8JsfnQNBUXOFo8WJTfOS34IRmY31pWVJLhps2euQ2Tut+4KFqU+xkcMHGgB6jIQ1r4n0Wcx2+0CwBIf/7phSXIgA+GL6C7bfcgbjyOyE3JmYGQ8R9ftgkKSwYNwpijuKRwW1YtnrgNep7usS8RvL1JN27c3GnIhIE9AexRObKQRXb+d9BsqN8KEFvZH4AAgXqVfLUMe/VLnZA01Fg29OoPS1OQs7TPnEb4uzwLD6KwLJ2d2VW8mmd5xTF9JCbe6qPtZ3c3dtrSzMZbRwPaSCSLYVO3TjaC1fBpagHoHkKnM+vMIDP1W2Z3xXnMwSw74EmZ6BiaeXlRe7ORsua+5vPa9UgzluKdH6NTXabVR44b31Gwje7ptRttWRA/N94haTKpIAl88+aaNCjWLWaaqXeCWhP9vOhHXqKSuGfevGzuurzjW0RgCKH9ybfKEdxs/gLo5AKM93E8Tnwwc8il1adPfx7OUrLZp38xb8xgqRd6f5ZJhiVB+KNSCWQrDEIxsSiT3JOPsAAAAGIToPYpC1cDqzxFf3Avmip2ni7JE7txkO5kelpWR7ku/K00b8FXu18lO2/LCJB6VUssvh1UV56Wtg5qAC9VYvewAAAAH6uGeb60Cpz54NnTCe7653r5EQ8NEk06XK5oBor7zkQs5Y/XSSltMRKAyffFezBYBHjzHzOI48BNR04PIPe6wGpM69z0SyrjaoeZ8MNbD2mNn9IJYXuRyBgE+BVlwnil7ZuebFjde0ychtcugzpMiOexA9UUuD8FQLpOLlcGWnFp+VmnigizmqbBtWOjEKPqqlTFsTV7uKcukVUJOvsFMdKmfyzDtNxKTDgVa91zbF0OsMQWC4iY5DABZfwJ+kI3L/9x1hq3FAmTtldBen7BRdSzKttAAgmx+qKueLCZd6fvhfMo48sOvdZqozWpoa8s40neDxRXoIDVAlomGTY8tzWO1y2wrjO82Ra+ORve0INahXpayEZiAuTfwjXJA5LP6RT5ORNHkqhbzXwYkR5tH66u0O2oOpnDmeMOKcqwB+40fEr80X4kb8ZzxrOSntyBEXSXsWYpoy7UP8nvuzem0inqIpoEPSg2DdU9wd8iUbBgDJtn7PP44axCh6PrdC+1+/3k44trXj4Jgn85LL5faaP03k394tUUR0M/7dfD+YgUKwAGuiCcdMBn7F/3LCRC14pGZl1LF/6u0HTIUo8HMVuuesl3xqB3shQvwiHeGyJzisAkuTwBf3Tt/ey6117tFt9oxWt6mq8fMuZpMhF7hqyVdEm6Jc6Pfwqf0eA09ju0dnlQcgmEErTYKF6mx3aO8aOBLcrnIlTl6yxyxjoOZRBoYpimkiPz9239GBKrMzWdHQwkDZRUxg+aukmjznSWigu7YXJqElEHhVKlME8hewkKrnPJNKbDqKq4mSs7rm5ZwAZLNN0WUz9r1nRoZ3AxtGbNf1pT8mKY+Qd8KyN7JV8XB04mdpRKTo2fJuCqMbzyrJyD4vy01sARAjmkikNSBH/aEFeuqnmzzu0PNZDS9j3yQ+UhGQqNZ/Ruy2YgCINLwvZPHD5Cjbxm9Dq94q8w9hfIrWc45VM7u7Nafc9cO4y4jO9RyEjSvHKaLtutWJyweiXRkLJo+q0Hg+85cbjDKsL1yyZnbXN8ska90twA51BgVimAk42G62L/WBqNAPZ4xxtAGDIGLytQZXhPiku0LqpY1O0bXG4sg4EjFUT8Nu6QmMtQ8Nf1gaqmAn6KjcODAQU9Lg49hjCbmr5euSqMazSRl08Wzj8qmHZs39XckfxawC85vuZUDuNAg3iQsqBBI9aQCrmHt62cseA7rhwPjrvu+n6aIYePY9ZpbuymaBocESuQmG270w39TVP1ZilGGOBc5gXfPLQ3SkJwnqO0uDnKR9wgMuKuVsOObwdeV3a4pVcBLIDNlQYOGzKSmLpvrbi2RipNvcLX9NX73HGS8YAf/orgYAv572FVLZI/qZqAaeTrKRwOkaQT/iIUwImH3ZgdgJtSZHthxZoEjZXIOlT0I7+CXslmB+b62tp1+f9pHGYnDYXfpXoNXJbZi+0jO511aCSr+0Hrz4Vf1eXjr1S69CIOOEMr1yszI5HO1h39R3ndiOpkElSsj0bQEbtsgDaX/ros4c+7jBuS057+JbTTL9Aa5c7jtFM8lcldMEHdxLbH3o6MMgrR4LhwKzzvMqHAuu2l6SZrEMLUZWdYr/YtyKgCLyRLV4slvkuJEsoXM79hmTCUEFp+eqEHojb1nOZw7eXs+0e1H18N6HwbTZKWfKFUsDF4yWzwHYK34kSg4E+aWCZSL+MWJSRuoUZTCdvdMGlX1o5kcrbeaTqNGVtaXV7ZA90wjGO9p2sqDvO/P5csQg8+AY8FpPYumRUw1bCgWO28pAYsKud08VACnZ3UGtD+mACsePkd2HNbQmE0OWWjEOFJ/CNdD1G0LJoinUgKWBuYvmS3A/GyrU3RQ+5or4ZOnmugG7tGEhOnY3w5aZrdfQX9HH7NHbQ8OAVSLVKDYkjyNyJ04SHOIS4I9zEvWRo5VU5+istIF7TeDMjnuYBWq36sC7eY4RUWqQGq9uSjLtvtPBExfpdN+nNm0K174tXc8rt1SkTffeVxUT1iouzPcXRZXqghssbuPsovttXZfZWk1FbsPjshlFnb+tVAkDKOBSrnnJppt6CRCovz4b/IlkihgxuoF+cqYM3twgLrkaB3VzTBOGYYZ/JklsQN0ZT4vL5IYGFsSlM6BgFbfbWsGWQtinR5KvxVR3ivtcOffSEFtlXqVOm44rNxZx5V682eJW0SZFoadyqlvNnJ0oHn/PmGAwjYxXbzIpOeOJpYLU/E7uUzvtfFyTyCJjWxzn0uYsOXPSK+SvyCWYbHtjMovKlWCYdMcKAyDdGLlkI7+7GpH3swzwtO2GgU5ScxMG/qET78R4ydqyxad1JJZvLGkdgfqkBHyTA2QGAABgFc6rx/upUjAWu7avT2XaeEREre5/bTxISpMyF/FZ7NrCILIwxk/Yxcva9IzzfJss22kjhrZwISIA2BhPUPKPQNLomQW+Y75oYS/AF4z2f0wBxgcLCLchUOOkmao7dkyqEdIRKrdvkqAlW2ylGBMJu7SDnXzc/hTNCT7M8CQUpY5puNuVrdn83icRw74yZDyEMy3JAGE9WsoNxLU41PnPNGmXIWNwBhwpuTOp5ka+jLpFDFCeYAw8eqQ9BJFVvcRkvvlUbDGk0oBLWIwxJmKPH4X/v1c5qcxW7yNI771Uj9jeMLaeo1tWbykJtIL8V2NFiJSsPA+9ps9Kqh4k2x3BOruvI6p8ohB/mdOCDFgzFqS/S2b+qlIuCGxtLhYDK+B93oBAAmlYuI0RBmpgjiyeRLhU+dAUAAyz/Q80bRD9LUVl1Z25yxZby4nMy0CndGG2fbQHYzs5PRvjTr4gdxb7Tpf1ue2etfrFmP90e0gi2AmOCDX6sGGMOWlR9HLp5iN1kpJ88ELDwgseEdY8jkL+T8klVOSR+2czLPV1JNYYQP90vT6UA2AeQpFqankO4ycy0wZmGAkRfIE1ELqItAfIhqY2rGwqEcCMGxIitg3F59KIIJx+W8Sb/bQ1T3NDDxUoz1gBx/L39eyGXqDeruD7ZaM7V3yvqxm0L4qM3rN6Elth1JoPCTLz2nzMM+DS44BuAYhviGuJmEGxZHzR74Fy1WF32Ie5gMcX5txDcfM2mtFWoyy09znvGQtBz54nrori2U7UkbtPAZNm/VOsV/AAjvEuaic05AgzQKF02atNv9FUpDKEhuq4AOzrqNQ0wBMhDz3Zc+jDy+74wKVGgHRQmHgbZ49oM1Vh9egzztKcsgmCQWQngG2oGr3U9+zgzwZt/an85DEMPjm1tUsBWrMk5ljnh4AkpGp00h8Ao0TAl1L+VlejE77hRei4y5xAWSP59WmtnHm7FC9mkwC35S3+QHeIUgEIlr+Ni9o4lha2aTD/av99rUXnHYplHtoHFG7N36uddMZ5+voi1qOYZfj7fIBxdV34Wty60OjI3kd8ahYmM1wWLYtuT1KVlmQh36xAjGk76cps9GH40ux2XRRDqVe5S7Q6uqFaGt0R7vs6wsELjqtjTq/RRjxaZMjCWQg0ano3Jr+e4UzEknO0YDqrfEmDuh1VufdG3VhXualmq+PK9UEvQvpW31Dj8382di8hKhkGacRc9hX//4ESuKHcdI/BiiRbgaDVMuor0iW3BMT1QWChE/zjXXvvaab9oqU7/IBnuE6AHcoJepi+dpdqzc95zKHNGd8jpZvo3zIn9Br0shJy/0F97tN8H2HlutBfFot68q2W8lyuS/+SFsCGUtiemVqhbXeNXW0WNau+/yvvqXfe7ivDOEbrIdbmf13i+6eCBQNP9x1XPRhgPoYlo7ulZfcuDz/WA4rEHtCQq4Ro4qT5nbYBunnKiRtZbbPrum637S0Yz2iCLo/PyUPG4SIZNMuvfoGyDrCU9BnnNsF/4iBDA+HdujlsNS+txL0kp0mNyOqrlHPbE8OCU+N9boqIYjJuoiFy3zxrchmXfUiU1oegnO0lNY11kKBVKp4IGjtb6ZwHCafEaphdHVeBk1OpwVqr+su2VfOwcV5HM1PfRtm+YLvvsKtDnkGgpeMyo5acHpVOle1rMsrbZVYcLG7ovZE1zCrU5MsZI9PyvWvhYILh4G1djnGf/b9WSGXnLQXH4tsQGgiSFXaOYpC+b+HtywLxQUrM4pAI6Oy88GLbOJmEf99CLYzJWMzx64HXHcGsns03lU8ksDh4J3NPywcNPyaDg0xQYq26WFtTfQUbdnc7xnDoe2rK6lrvzQxxdQju8sZ2L80zIEM7mX0sfdVWBTUUJRAmsVvRj09eAeXVB57iDzL8Jks64cmomeZspVqDkWcIqYjvtp1vMk89N+JG9LtRrtmLoHD6hZY9cUjs90K9JyJ9sBbZmB0JpzTQDG06MvLieHlG5rki500dVFDVQfD6X0cx7aDwx8yw1XlKTC11jwjKfqU9gJeqjD8lfWSCrFnk+qEI8tocIk9GhoY1G3fA66kLf65QvAuYhOgqQvKIrRVZ9fdE/cSpbvsdj8u7VvmFyMQ6pz17e9iokPqvZTHm/QRgSM97xTMZH6OdSB7ectQ5hiZQHX8A9h2lc0dE824+KS8UVApRka7c3f5xAi0p8QPq3nb87v7BYGR2YPf0QeaNFmO7kf1fn+Z+/GLsKOnge0ciXxraDdVJj1BNDKc0TZwCr7em1yGcFxJWkWt9vEy6N9FyOQHINAqxTlcEddtcU5/WS9U07hiYebh4Ii0+WbiRIeARwutawL9ejbXeWuVHiyQawyQyjJ3T6wR/pdybQ5Ngm1svRqK/tfZHrYJHEAJswPI8cEkye+/VYbG8R0auftYGrrQ5kAexw/5VnqovBg26hS2ozGnH6b9fdx/1XgZoB4n5X0yo1uopZVom/JtJN49IpbBPXevAwja9WMR9rj3GfKs5YCuPLh8lPuyZM7hE6Amggr6OJeTHyAUjjVpQ5aQ3Mz2bknSkeyAhsQoc5fZbgx6/hOiLwCFJCW1Odm/OtYvzApM8Gn8d/9mxa4YGg6hH+SVwHqBcdLt0LulN2sGKeq7lq6itXevGcZjWnpAtGz7Raz4Pk/cHGvVr8k5e6oTdoIklTqtRnVgD87tD1sS1MBwUf9z8sbasp1LrxLYt+kcMQxqlMDuqPKVGtSZeZmn69kBdxixp+Tw2cvsp2aUtXNrCbnPj8vR0uYKNnBn1FdOBMR8IWj0MT6iAWX98OOriLeeIXritEKWjCulaCP2CxBDLdME8/MiPIoLKezTjktRnkWkRt2IGQw3pdZJey8iAPYYL2jewj6xcxUe71bWsCEEE9mZzJozcHP+LbgZb1ZstVerdIm0mVLiCQWvdxqoCY+JkF86y2E1Jhtk5IifRGjeH45nQLV7Rhw+lpwDR3gfGy12aYbMGc/srg/xCZYGPkDuu6d4kkBVrIAcOMXKSJfc4mSJOP3EAm2pf7jkn8+8XiVHP0DQkYQc4rL50sCS7sNZ3VNLfKzo9hGs9Gx7pN350/Hdw4o6hzaPszKE6d8vlYGsjQBqb46nWkSXybTjppbFu9iqGJVlTyugX8Jb1mU4e7cFi7BB2w6ZypH9fgmTSgtipIm1KNdRmMRHLWJpeg8JW57D7ZNkkSShZ0kw9oE5yfYKZtfZuSdavh3QhfG+jMcZFfqQX6U/C90QP9PcKQ1TW9hwDimMRGWpW6fSAuovsf1QpyKfF+5eibQ61uzJg1WAvKBW8Rx4GAmcCcfQhAD/tFSt/XT17v+xwiJ3mCkGen9+TgOzOXwMtpg9tA2tqC9spCOdIHk6kg27+bPn8KKBou3qnonZ2Mv7cp2IhmEaU0iPDy4tUEKgE9Y+lrwhTWqfnKtfbF+4TbtWIJznBldRfwQN/U40yMLisBsZ0HkuVODsLaSP5H808hamN/cs5LNQdR67aygsxboduXrR23hiKcs4ukDdUjI7mMrMylBF5tTfmhXUVWC/KronjCbbvDSvM+Jnud3ULe4GOwdaoVVhXhZbG2nO5fOvuv3WHAtxqhawmcwOhSNXGt3qJ01bQI/T9vob0Nd+sld6VSz4hfl0l6oZ/K4i6EAxXcDaJEBnzcrcI+sepX5wvya+JQpa2U1BzFkRY9p7FR1v9G7HwB3CJHvKNHU1Dtnezw8l2XLpKHMEaabp7P2hXOWw7dzPnGYHuHas/9tNaKoB9LpWELXzRWNQbmWEmgEj5xvsIBYTVN7prRxpVDSHXr4FMwrwXmc7lnk/7zbIrYqKNINrhmIbAKGGkMMPfyzFhsfcRDfXlSvAPgpInHYkv6WrAxQtrVZorBT07g4J3fdMErFfipo+HpmrKLqv8oL7qStAxGSaR4XyLpEhnbr/RcR4WR99Z/z0yTDGFidsQ3dF9lvsaDc8skiniU9GH/CsNYCsTxcsImTWkdTNkZsQj6ky4Bj2LCgTDZSAPOJF2UkQsXuvx0Z+C14zeyApGPrqhZ241Jpvs423XdcvbHkmAB0AtF0oDXEAUzX4yxYi/CVFlQJHlxMqFc89U6yEDPKT0LQx7ZmkQohs/4srPkDgbQ4ssWe5VsF+cNiKL17Iz1yySsHbAkMieEfzkA+mAvwIiO1FMTNcmBRIpEycG28CfNaJAzC4rM/LZ8tpMVS1CdbLPjd1U8tNJG/pBJ+4EyqPtfQRfFTPb6qTS1NTR2sL+/JuwpoVmDvuOluX9mzKk/C0/Fi2vBsbWPnA8R/Iz2VEBWz9IXy4NPlXsA1gn4KTWBQChKEPmsgKbPVFGcM7mP+OqkAm34dmZpE4+yLt36jwgce8zyjBvs6k7LilJV8Dq6GhFAaOsuYOjHguY2Nuco+nx1hExGXY5F1Of8SqTi2twF+BsyKD3grYO04jvx9MgtxxXzsRSfNl+P/1HJoydiQ3QW4l8SmHZ7g3VfGULDp73wYhQwpPqHUVFpfMjxptmrAlgRm5/+GcPwI44oIsRMIgBYPIFg2lCXmoOeUhuMNsw1KE8pJ0WfRzjSi7CVDFsfmSyAU5RDb1FJccjlgVQlzcZSg3BxOyb9FoaRYIrgABe8kwSeHNZSfqJJ1VvD2/+N+XrRv9ulQwf+zqpMTG0qn0dEhf3lJl9Dv4X1yg38P53Zs9kRzrUF5MtTr4Q7b4Bcj0xEnsviSF62t2bEwkLgmuL1/NURlfUZwEBbjLEosX9hjFhOH77WEGHsInGBjFXfXWL+ZbdaTDVDqVXS2YSXVGccorKMSHe/1ZynYa5j9WexLx2jWIV3b4JGma4zbYnFJYnZ+HrVtYQ6WSKgsJPXQAXNDbzOVM3axdg1t925HywBL5mOonsoCTjq5HjMZLvTgBvI5vcGVN4aiqrYN4nuqB/8TQ4m2NhUXQGaSbJ0v+/vhQ/5FWWUijL0WBv8lv5NFk6Nuj4J/s2wqY41kyk00tSq78zplFGgvO73V/uxjLAShXw4w8LlCPXgZl0iC8gT1hZK9UX58BBXv6XOKgpMn4nUuvwSlCGl6cUF4AcQYif9M1YIAAAAAMFN+j7CFCwZv9Lv++zoW43E7BO4Jk0J7LNmOUbWu2Swq/O0ql/VeVaVpFD8opT1z+KgUpTlPmjD6TKbfOJe5THFkYAAQEVqmnvDjNQNrw+ipZdzb7YXZ4ALDaD1ksQRaw76uB+zHc5OWkU+qYbRpkOsLF7Fz+vVQETnfr+MfKLLPfL3+YjxwBGhCPeMRrnV6VzrslGwys5AAAACWYW05B5F3vqlhdR4oCgR51/I/ExbpuRZRzr83hMvuymrRG8thCK6SzotK1L+sb0aZNiydpwWbm+Zh9URbbvTltEUCft6kbxxcw9/ZO2HPyJ+Wc6vAg9a2XmIQIKjDbG7ltWzm4tPCcS+VXUc3dqrVU23/8U/Mo4T9pTue8baGu9C9ZR0+HLZDhL+yePkiR1IG42yfwzPvgtnMl/SLKxv0Y/shhe7dbAAKsw2c3eSwUipvGDXswSgRmB9R/NEIT/0DZ3XQwvunbKM8Wnkcyb16XNOGD9ml9XtZ+z0Z52PdLFVI1CCgYNxxhaJsUYIUobWCM3ck7TUJ0AeLFgRz6qchUgKiOA8+Ka0itSfwPdyhlybU+b+Y7QgA/5Cx4zQ4D/QJT/QnSj1AO3Ngwof8xDslFQ2Xwlxsgcx0d7mBHXjKAxo+/WOvPPuIS3+a/6c5A612AhkiUwPzFOAVv/bhw8DuPrYyX5WY7nH888c4syyAXD2O0ZISQ4hEhH9fxhblAm/6B5C1UHq/zWVZZ7XwI+zkQ2VlggkMa2/n4nLcMPeMuUz3bxFYEIEnDHTh52609J+Zb72q/BhoEyNgubRnykHZf3E2RVSUFR9Cf+lLxFDiY8mGoSskGl+5BJJq9Z+RakqO3SF2z98Dsx1K//0se5GPYnLIl1dJ4wz5jJCyuYB+IVAz1xINI2XDVkgKSoUNXH+NGxgd+Hn6crxVpsarAw4ojg34rlPBB67mbUABW8utqaITwvZFu7KgaH9cXJPxQUy1xZyuImS8fWgPfMGgcssf8VAIO7eozWfydDjGrNsx4V6Jogqe7tdv/+9mK7uxWxpc3rTdrl+ay0aPpngspW2vqH9IkTojRsvpJP/r9yVSQykIma3uIckqecNq76QHhwadFttCVozHp34GkEGleiSliFgeGUeyv+fbrvV9pFVQCA1YYQF53ONMWjBBymoMIT/cepwAOxzRJh0Gnw5j7iZXqNPfGkEvEBpjScx+IeLC+t5moJcJAGioI3i8oqw7mZw4CNoEHNJ0ZRiJRCXrzYkzS7cvQJjfbmEKpfZ8l1sAm7v2pwjnxEQ4h90AAnPYk/gZByBNnO1vei5ZYyY+7s+3meYCEJFbrcCtJ5M3VNEeXCodS3hnp0nPHs5SriuJSueCUY7tiEd9E2jJkWgmcogNeHTo3vw9QBFvq8L1+sOAjQJ4f6K9k80iuJJuwqk7EeYbk0w/HAkLGxSwhzhFimwKj+JUYgADIbutFFbcLaHbU4EMRLmqN4YQusSSFwtjrvsgPmWHj5s2oiTlMfhsW96rePtVum641WwN1pj1lQCH1WhH4+zyENWkt2ypobW3XUfRcQV5rM3z2uy/yYgRjGJUDFb/rD1ZR0yPlNj1fJsaeWMH6+VU9oNbKhkRSA9G0na02aAL6Zghb9MnK1ltTkwts4dANIGBOeyvKfXCxysWaVymn1iSbU1FKxEd4EH4DegVqo5QXlp+1aWb7P5N8xkonlpXj2ELf4fG0tB5jloAWg4gZBG9CfkwvJB/92CDWczYwb5DADU7ymJqTk7hTfOgb2ALYEUy+7490CsENQtFO5DOqwiefhO7Yfbybf32Wa+Y+aUAekRT2cs0XXe0Qn7zRolPEfpFfZCEcnveqCVkgUQDGSj575IhqmpXozQ2uiIu/rTkuDoLJ5W7zFKpyBWwnDQJLlq75yOmpl/2HmVoBEkXS7U9t6Zw02a6LyppImdj6xaaXZjYAyEb1iC0IE8yIOGalg0gd7NV6R5ldz7wh/1UeEWUjPjDW1r6jYsYZZv5TD8CjqQ5fIWAKVoqq2TjNjySoYJv6VR4YyPQr7wc//AXa8z7yYDcH8ExNfGn20CMA6g59Q8fIXSS8euwerBgjef87exKoypbku6LpDAGdwjGPcWE0FTwLIlQ6KLVyFeTeDH9hq73kIDhht6dei5VG8XqGhtWfWuWluMiq342y2FD+GQQmjoFW2oUt+ZbrvEawgPMKFM3Rei3pnbR2BZYwX/nK5HDXefXjMUjFYQKbKLksZE2FndgSjwG9hK3W6dTKvK/2GHPT8ddbjmKSrpyokts7Z/oXUKL26HrjitBNhQWpPNT9PkZaGjC6to1PV14QK5cI0cRIghB+o0pMqsTZXtWEVvWjWXjHr7Rj47nMWaNuWXCYzyhZR6aACBWlWaqflzNYqp7jLxu/rXnKBauGhBmQbfPzKPliYLlvyuv9h5nff5tn2MPJtmfFsRlSu+mAy//qmBkQhAeirPJnMTMKyUWxgRPEeWt5gi9ej/guzjZvxz1PYP5qU6iD0BoQPUtn4dH3j2ryDqgzM2EfyWp3DmDVR95Xo23LmkRTomdm+tsSGiDvFeLRkkWs4Vr8S3AFPYaYYNs6KkxzUEa7tEiP/qvFNc3asuUUGfoO50uNqH5DhJCmpOMexUxcmk9xBh1aEhMUJ5anyIMcB/KrVcJqSDf3TFBTZuPBX7OUfhZiZCJ63/R2FEagVhvgah3tb3KmZm9Muaa25pFdpgSzNVtCfe9VWD5ck56Q0q9k+9q2Iv550EpOqVvihwOcGXL2h2cbg1037w2WmHoYn8NVlC23UdkshO81mSn6zLX4uG6wBCtBFU3oslyyjamgPqqajTcd89+6tGJ5Zlgz2EibK0/FSutgxuV+R1T5mITbhlI0HffyDBmcLXyUyHzgiz5KMUby+Ok3QxbHNV04WtDKMI/gaPOWXhuv0EcgbLvS0shrODIOZXLcLjiWqFNp+p8jghUtl4aZDQx+xWAAAduuvYUpGyKeXE6ixisWEcuzJZOxfMueSftKAEtTgZ0Oecks6LxDLKU0rQGFTP3mir9XgTZJY2rVgnWoXOD+TR0hrlzaadtKZRO05IYXnkrM2ife1k5QSjQcSwYt9j+eIcZWNnC9qUoApq5lsPGDTUcFcBGG1NayzG/qpSHlkfvNzD6k+BXPvmSBNke0xs811bOgAEnPIUmpPGrja/K37tdH/x/qxHZ9Yhk7Ba/oFlMH0JdDqE3Vd4ur+AIxEp/4uI3J1WNCKzkD/4VOK50hkOHmcP5H1KyvN6CR9AF8Y1RPb8azfsdv89Hd5TNBuY72pt8y0HfRhyBjr6MeIsjtmLFffQZrsa322f4GVxx3zG6AaBinNWXziPW2M+Y4d8QTyWChBKqISzhHK9ceNQG3ez9BhmCmsneHNE7VhWFpSf5e0B5Xs8lfynV89N66o8EMpqx/iUaJj9C/AQfzC7ucK3KvLKIcAQGbSdnnNvXzok49UDp4hwwgXqTsQFGs1ahkzCFU21LgPmKi/mYt4hPAfhAGSRGjh/3qjSiXCvFX1rF4AwH2dFuSD58qtHnXfwLWboWL7DAUhMtS1JRFXErtkSoOto6gLEnZ254Cix57FxekUwai/GiQl0WFnimK0b9eUPFfdrO6GyHaEjw3RIxQpxSq+Nmp1a4h8WmZjR+nEAozK+RzWhAnM8guV5VGg/KaFgpznJD7bfnuqk/lG8+z5n/Es93KmfpkrdHVWMfG2CamoFmz9emaPFDvOysQxgAdzJ7TTbGwJYa4E95nS/NCLfNKvINTuhQ+Ft09aWIqMdGOE5akYZDG9rfxT/kkqxljcAwibUl3MCYXcvibcv/s57oy/9FWKBnsyE4bmQSiDwBFeTIAhx9wOgtSFYuTU+Ydy/U+vkaRFFz6Llk7oE2oGmtdtEX3+jS8NkyHN/l5T+RD7LXESSZws3ajDRoAW0KNAGl+X0aTVMTf2V0HnmT4rPou+MkWARMdUXnBPTt+Slp78vph0SR0WFvBGAnhm3iQL4f6Z/3EdzufbV5W0645qnvyU+tirgdubSuZpOlothu0SlIleVMqcWbXDkMuJYd2GyoVVLaHht7e21aIEqPpl9399mb8TdQ+Zls+BI2sttn13QkaoAwULHrphVbn/qn8Zv8doobndBTdASDhmh8b8YKH7P0CdY1EX0Qb64nry7OiGw3sA30nmEpodmla3Vs1wUHaXa3ImuWBjSAjKLhfzOI+pa0exCQbo3DrWNStAah/UWY1lZxKCWSATq+V91KpXBaYcrM7K5jfXU5TPGPERnaopVnQbW1jW5CjNS6877Zr5MFKV7S27g1Wp/sporb1aqobQlLpP9ssz2BdQ6mMIrV5uICJiSPnc5BBEOl4/R8msmRQFmG+gwGv0XLlYMC30P3I1jSN8Ljpksk++dQdvvKDgOf+r+PJ0ANnFjRaLhmGmvh38sgGuEn6+c3UY9h0KfQGoMd6PI8bBI/YJE6nK4w6n6stbESeFd5+rktzWI1Bd631ed3kBHGVuOdH0LLSQNOy7hK7dKHZQGMekJYICTl+bXpaa9DTVXOpn46dDfAEPFE1m8mIg3YimEoKfkL/QI1Kf+T1Qvnmo8F7neq66dc7DiZ6EJeEX5peyw1dilp940t0RSTMWrMeanCjFgwP9AHFbah8XpL4e55gKy+0KWpz1kpSlkseg6aYgGMghMdoUVskBL1xG2s+wO2O7o+rlCZMvLu7GwciJXrQwdxLgx21baQkarmsJ/+e3S/yPJZZg/wAUaREoImN+7hLqBhe7wy0uppAvdMuPFeqQcfjdfO06WdecUg2jzzOCZx27XJM3BOrUJc4bCakzCMMFa4QpL1jIYeV1Fcd2ZQfdfjo58+2LFGUIZtgdAPYi2lXD6FcqQ+OXyJ74WQCA7j4HYmchcWv4ZQH+O28sAZWwMYmy8P3uenZAAQBcE61uI75CnQ4L+jHA0690YiuiuFA4+gskLklxmsUVZAS9EQnUdLN8thR/WaO8JAnVk/8+uf1oMcGs5lazOwIIoFq6jBG+u4q2faSYjuikVtiJn/OgaATjSO7YK3PR8tMK8ndYbzKU3BIk7GIwXGv1FeC85f8fA78wYKFckzJ4l+oILKkxCh07azoiPp0EEcgAjXdcBJet9SHYihdes3waGx/zAgBFrSHtUbmBmx31eEOAwVvWdIFF5znyLy9iHI3Sj1qElmhUs2K8LfdM23R0fpUZ0vtcbEpmJkwiT042wNJQcse5IyTAqXwIwqsAI3rmfJBXXUkmuVMIPzk4eDh2LMYl4Ya6irEsF78nJToFhvldcEwG5geIZyAonTeRCFTfEyDoda2JeKk809L8b62hV3+Wq3tR5L3lLpXLxzScuQOvIpixDZakPTTX39AEtVoacnKLjFpFnfQqZ5eWrcKQjD2LyJIIKesd7/cWvYtHeELSZ0/3IVuPfV/ZmufJ2xt9XA0A/T7UzZ7mLeSjQNYAB36dHaLMkcm2CPiokWPJksZnNpygKjLSqeVTBlFwnUH66MvqCToxz5/jHRE180LvkGTXjKmTko89UhorxRxllb9DqshVSnquHzdolcKoRvEgPY23+tFdEyohlM24eilVRSsmAyhHKoFdF1M8y8Nso8APHm/749/MSkiELh8t+qbgYyxl6ZhYg/il7dOeWdoYQb4gPYrcZ/QlS1GZ8xya8bg6g3G0EHmcNcPF5J3texsrrbqcE3xD2QhfTCS3zPGPXDkkyHvbT18udFht/Hz1QLHnpqYgithVN+RNtNYElwSBpHAybeWQXocfnxABXU3p4dk4O2fKYA8jXZPy56Y6KzVbbRyYXoEUqogBju0SQo1PHFHr8e1Z7Ymid5RukCxbAa9Pw5C8waTldldgI0E+nc6PnLixqaHGJIT17PNLJsds8T1NCJv0E59nx5fovmFrJeZBxZ99EinInZNpDumeIbtMoX/osIU6wYfn0qhgfnId6SHlud+BVZFlvTxa/J0r+bWjAqrblM0sRKDXeoVDLEkBhr9Vwcfp7mibhWf8a5EzkSDj2S9SVUrAZ0aXWYhm/w0CVlNtfK1zYxGMqDaqT6/EzFLKA8FUV1XtavPpC+1YAhlxde2WMp1x3jVg1gIL+LjdAoYtJt9nxinsePcFPhdvAPEr3JIWo8pi8WUvbXmM6/pQKuSX3HGwm/UeAYpFcZBIHpHYuilhfgV0gEmuVpJkLS7e6Amc00onwzOiP+STj+968LEPh3nie7qOW7FJ5lJmxapiS7eYknJ6C7Nl+WTS/yBeTgjgITbKPwtuIoQnyoxzXXF2PgipdwKIduUazG3yrCR8urqof3smojWgK2V2r/sIq6acSHpnzRB94MY6Wya9xfaRkmqI2F7PS9k4oSiBYbYlM0ybzpDtMF4/oQmHnGqA1ms/aS4iAvZHAJsGjF/AmJuKaImNto8gAAAAAADQqfXMOuVI/EZSm88f9b3w1MOWM7SzL6ifPZjG08Cm4Dfo0+cGz5ifGBsezHXWwzGB1CtvS616LVWEX0fl/kSk3xxcoGo4pv42HBvtf9G3AyohntuO1YZ0NblbHCm4EdAahkjuPi9kVdlXiRaDHOgbHZRVL7rC5gK9BFrl2xaxc8xpPhNdx/zm6uVLT3YYnO765fLDu/z0XsQo5klcpgKgGn1x0VjKJVQCeAiPSKtlZNgoU1jogvEoWRrQoE6AGd64Y56YL8yIbSFLcBrEnrDha49GbOr/lEcjosD0b00Jnp2ItzJLb/NYVECWkfHuvAPu9VWVd07IvaUNp4BwsOg/IB+8+wOBQDCcO/bk2ImOnA82/GrZ1Ir7tZJhonoGZXt9L5AEEPNp2vVZrYBlOAAABZigLa2gLwfOs+P7aSr7svYdETBmEZDympw2F9fGDjVLJncZV51AiITRFN04AAAAAASz5Z2mZfuMs5/yuHpBQ54rmBinc2UdXEyrIgIAGICpGZIiEK5YtGIT3AAABAq2MwLOaCrSVMYBoMKaaZbs7GPL7cTKzMy7bBtQDIs6NdRiTQm+u1ukEk1YawV/d6TMnT5md6vcAXK+J9PUyNN3d2VsGFSJY3exqIiULb8P4CEFys6VZCKI9ts5WN9e7aPTay/u/Z2zOdgMtTsG5fbk+SWxaXSAAC81CyHi2Kz5ppi4dJj2LLVkmbA5UHnCPIHmEp9t7efsrqpqFTfQo0mCYhdT2h5tbVv/PgzY5+L96Cw31oxjc+NRFTMUc7BaFM0m39YK7+NsNr2Y+Vh2o2fXIo/B3UD7lMjAsHIomVxov1/pfOigoBndoCkBMhgZFHioOn/wIrMYymVKNg41g+M5JDwDxUCw2MClJKUW7b3hK/iU9qYPV+GpJv4Qr7ZZLUZnv3XGvGkph4RH4cX2em19uZfbj3BdFAkgUkp2MNXSseBfwpM6tdeWsq7dxC024PczRiQV2qg3RI+tXMEx8UwQMMbgAtuJ7qinZjpk4IK1DUm22uCqabmsa+MQcXJfAT/qfKAAAnPvWY9Q0HnaJl5+g/FXMEbG1r+MEu1VUm6ghJM6oeMt38OVZsKyT/AMl/QuWfBvTJeIa0zmH1C4uu+CzQl2MlL/IBm57PRBXKXCdloybTN1wTlVq6AD0RnKR84qSU84qx4Bj1Amlm4hMoJi4c9bWNvJRCpiY0zZ0hYdPssEkFafJHNPi3hDapTi8nHe+kNbbzcR9qb+x1NPkDRaKmVvaCbLqKCb0bUaSj/XWIOANmeASC2Gz4eC/4JskCh7X9t6Qs/F52epDKFtGevm0CUx1DVMbWBPHKMyHhujJRnotfKOrrIuRc8k6WxNiUMao0zo8l+C0cWPQfVt7qpF95DRhCbJ3zIZc3Srrrd/HItweN9MnkmFmWFI99CuxDROtBisxNrYK+e00ZztBshRf96f4VoRM9EzmUTFU6PAORVmZH3cOcPCa9Ha9Ke5R+ZgPO2OHVlxnHJux7zmd+sa+NYunKSQOVJBOExxMUOdaf7/fvVh9Pl0CVI7B4nSgl9RuK2UQf/jYTaDO/Btw/2MDzLUbrPxPu2PP3Q4yd6RVZXGk4xjqEDGDYUCWb0BdQVAd3pSaY+jDyv3eyX0Cl+0FwcKFW3B05/g6C9n0FVeNOo3Z0ckQGYA56s7/LJa0RQgQ65C+pU5yda6lVvJ5GjIDwHflxJ9xAslJrUvX4k7y4mqh6kb2lw13UuD/jHdY69oWj25/LiDICP/jfVm/dv5aV7Uey1sN+Se9Wy4Q0NdCk1dZs9g5dVjQAAESHQYjALFcSJB20RHymaZYj4IXHM1mNCKEQVGoASGydUA2UUyXF9ZSGB7ToEGsLu/jF6BSlWPkIwqZOm1ryMjl/eArhNMu+aXhlNAZaMWn21hDBStHLpso7Mm7hO7bKKDLwDAM9Gq1s44MPyUeJKaewgQAARzkRkk/30R25A5ILNETy+oSC+QIpMryJcHCB7qhYHbEvsPjE5iowGphGXK9gF9n5QWHcQmMctOPmuJ8tkgj+wwT1DUFjqoE6TMe6ef98t6pFgqwgpzQwQQBtN/MIhc+lb/47T+6FBNBDrpVVNLNLAJjVY1RycMRhk3Kvi9olZ/WnDZ1QMODjwEH2et2egM+stUGvDrsI+hwE0ykIQmc5+atu9SKrKwvY+HS8rsJ0TY1MciiQvowtWAe0wANKSK0I27mtymidYCaMxfDf1P8i7M0oLs/OTmEFXQ8/LsHC+MEtlMpZoAjPsdRE3qOQJ2ZIGjSyBmlqu5nUxjGCswjtJKwzriETPyPsX0/qhjis0tdCIJoHBLTB5NTV9ihJZ1ng0RMZUiTusj1QXZ5MsEk8hqjv4iDeLXF1pzpEVNok7O4FMDKIC+2MYhkb0nKddSFrigyQUl5XdQSGuij7HnB0kYiUxvNQm/04lD7h1TKrOy6m4qqpAA7IwgWZx3C5VCPWOUIlO1v8ilsfrdzctoMFOk7PPMuBCL8NsR3Xf1gfNLY77M+Iy4e/UvbWNfuaWP0fbVZ2m3vT+VPb74dzS4hGhXPX9yEQv26WeuYtEeBDMesKmVY5cWm3fluweLWgsmraS0q/iaOw4F+RznPM4+8M4N39AXgsYJlD6FRqUVfGCj+4/hFg81n0Cca1rItjSjFC+C52gOVB14ikU46QumD0iMcTmQsArcMpxfHKBAAADmavdWuSrkMPxnxnY/IZqbhCnCctP/fMyXid4ll0J4A03Ld8M6v728So1O/6MPjWN1ar0jFg2qUMEAyDYaCoFE+cCTdKvE8h2hE0uLE6FvsZJqj0pSnis/mIuxZPjZ7mEsZVG+6svsxjfelLljAvP8gQAzmZoEgtcZzTwqXlanM96RwmDOVIq2+747g95Wzv0FTJA9vsO0mVL39sIYV6wdwoFtPrno307mXiZ3GCy/u9zV10G+J2Byg5YAzKfa3Pvj7ymEc1bpOV2G/CR7i8Y9lVbNjrurDrCxELr0JJmor1ApnlmZ3jgdShlY46iO9qN8UsgoyIPsKvPD87Q5PlkHpxolHasBykUHjRJZSDfxKLtqMiZzD1ViP1n1KFScUIO0o8/EeIPcJAYo6uLq+KS2rncjgRhS2vQDMm+tBdwLzdsHWXcr6QayO3esamehoqDRi1JAiGJmYTF6ScHQY7AsNsbwk0CHORmIOnef1ItJdWvTMGN3L9S8DX9Tmq9jRptF1zq7vu7MVosAeR3iOz+9V5I5XNXIBbBECuTpk/+DwbfWjjFz04xPaqBtjKhl0zuHVmUlzfyD34ePkabpy2fDupddOzu5ZkkVdiuknEMoeWwGQTrXmoY1FSO5MRf+U3o9HK2Ak08yyejnR1jjLsIpn/ITfyi+v3k+tPviTLPtt5kkFdyhaaNLSj93cejw3uSLm9pl1oBO2Ud10IpTk+gTmTGLNIfX8P7ctwkvHnsY5yA7Xj9OgK9ISCwCJaMEQn5z8QeOVIlvfMnC07NfWfoWIzBAoNGA/mEFQMya1y0BHwlRl+BG7UkP1nAAAC7ht4bXIvBG/wOw7Xd4qs0WbQGJFtKR3YslwsW279xzOoRvZTnNMxO9W/igctZNda5gjOpMqqrhxaobl37qCbf2g/NoApE1AeII86eFsxuU39YzcGdGF0UFx6kNghIZ2AuORIrroK8lDbzZwnIplH+jT5bsigdZxi9O2AwPRlmAyUCk+cNzXUuouxFffzFzamlOmkEQeaoXG9MQZneWNI5dojx065hmVmT8XXygPM8um3z46IxA89tvxpoLAjIBGFFhCKbvBeQo9XykwBm0H7TSH+Hbsd8eB7bgjrit9zjMxJ7zxxwKgeySVE00OazvJ8SXkmfH4lgC85h4DbwKl0w1vornfLjW8ixAWl2J8rB7ENDoAAAE7fln4Nj+8M9hxJIeMqxzagvAtKYWYVoUd7SexYZ/Q0qrUUjHW1FYYn9KVfJPglc+PSmzOq3JxEtyeWMTXHXLwCcBtOzJExwFL9lU1244oJ0bwM92+StNtEzW4NC6TyuQ2akuRmOUIEptNlnpIqJ9VxCkENOWv7m0alPpCnRIR4l3r2eCTQkoh8J0vzaESbU45o9tJMVx72NPveEWVYkc8TqvcGi6FHJELRJuZkokj/qDv6uKVP+6xxzbTmLM51imawgi5W8B2o3PwoOow074uCxEUS9obGmChoAvdgrL5mdlWL6O9/1EDvEBBguwhOk4yPOiAcyuKcCX2L45IE60wAAAABfBQOwI1MAAAAAAAAA==;" vertex="1" parent="1">
          <mxGeometry x="2.831068712794149e-15" y="80" width="429.61" height="360" as="geometry" />
        </mxCell>
        <mxCell id="B_ipoGFp1tY74W8UZ3Ww-2" value="Text" style="text;html=1;align=center;verticalAlign=middle;whiteSpace=wrap;rounded=0;" vertex="1" parent="1">
          <mxGeometry x="250" y="230" width="60" height="30" as="geometry" />
        </mxCell>
        <mxCell id="B_ipoGFp1tY74W8UZ3Ww-3" value="用例图分析" style="text;html=1;align=center;verticalAlign=middle;whiteSpace=wrap;rounded=0;" vertex="1" parent="1">
          <mxGeometry x="170" y="50" width="70" height="30" as="geometry" />
        </mxCell>
        <mxCell id="B_ipoGFp1tY74W8UZ3Ww-8" value="决策命令" style="rounded=1;whiteSpace=wrap;html=1;fillColor=#dae8fc;strokeColor=#6c8ebf;" vertex="1" parent="1">
          <mxGeometry x="770" y="20" width="120" height="60" as="geometry" />
        </mxCell>
      </root>
    </mxGraphModel>
  </diagram>
</mxfile>
